<svg width="1920" height="1597" viewBox="0 0 1920 1597" fill="none" xmlns="http://www.w3.org/2000/svg">
<g opacity="0.12" clip-path="url(#clip0_65_5222)">
<path d="M82.3847 1147.83H0V1565H82.3847V1147.83Z" fill="#031915"/>
<path d="M247.134 1147.83H164.749V1565H247.134V1147.83Z" fill="#031915"/>
<path d="M411.883 1147.83H329.499V1565H411.883V1147.83Z" fill="#031915"/>
<path d="M576.633 1147.83H494.248V1565H576.633V1147.83Z" fill="#031915"/>
<path d="M741.382 1147.83H658.997V1565H741.382V1147.83Z" fill="#031915"/>
<path d="M164.769 1147.83H82.3848V1565H164.769V1147.83Z" fill="#072D2B"/>
<path d="M329.519 1147.83H247.134V1565H329.519V1147.83Z" fill="#072D2B"/>
<path d="M494.268 1147.83H411.883V1565H494.268V1147.83Z" fill="#072D2B"/>
<path d="M659.018 1147.83H576.633V1565H659.018V1147.83Z" fill="#072D2B"/>
<path d="M823.767 1147.83H741.382V1565H823.767V1147.83Z" fill="#072D2B"/>
<path d="M533.123 753.964H0V1147.81H533.123V753.964Z" fill="#156B62"/>
<path d="M533.123 624.836H0V753.984H533.123V624.836Z" fill="#072D2B"/>
<path d="M533.123 384.242H0V624.816H533.123V384.242Z" fill="#156B62"/>
<path d="M823.747 125.966H533.123V624.836H823.747V125.966Z" fill="#072D2B"/>
<path d="M1920.02 125.966H1371.88V539.167H1920.02V125.966Z" fill="#8DDBB0"/>
<path d="M1371.88 1147.83H823.747V1565H1371.88V1147.83Z" fill="#072D2B"/>
<path d="M533.123 255.114H0V384.262H533.123V255.114Z" fill="#072D2B"/>
<path d="M1371.88 125.966H823.747V1147.83H1371.88V125.966Z" fill="#5BAA8F"/>
<path d="M1920.02 1267.62H1371.88V1565H1920.02V1267.62Z" fill="#8DDBB0"/>
<path d="M1920.02 539.167H1371.88V1267.62H1920.02V539.167Z" fill="#5BAA8F"/>
<path d="M533.123 125.966H0V255.114H533.123V125.966Z" fill="#156B62"/>
<path d="M823.747 624.836H533.123V753.984H823.747V624.836Z" fill="#156B62"/>
<path d="M823.747 753.964H533.123V1147.81H823.747V753.964Z" fill="#072D2B"/>
<path d="M1920 0H0V125.966H1920V0Z" fill="#072D2B"/>
</g>
<defs>
<clipPath id="clip0_65_5222">
<rect width="1920" height="1597" fill="white"/>
</clipPath>
</defs>
</svg>
