<svg width="24" height="24" viewBox="0 0 24 24" fill="none" xmlns="http://www.w3.org/2000/svg">
<path d="M22.1307 21.2377H21.1176C21.0356 21.1321 21.2526 3.60117 21.054 3.56534L17.2042 2.40206V21.2377H16.4538V2.3833L6.45814 4.97976C6.43812 4.98505 6.42035 4.99668 6.4075 5.01291C6.39465 5.02915 6.3874 5.04911 6.38685 5.0698V7.13722C6.62501 7.0725 10.9072 5.80901 11.1033 5.75269C12.1091 5.81363 15.0392 6.14689 15.2419 7.65499L15.2418 21.2377H14.4914V7.65502C14.0277 6.8782 12.3068 6.64485 11.5723 6.54435C11.5723 6.65417 11.5722 7.36508 11.5723 7.49369V21.2377H10.8218V7.59499C10.8237 7.4886 10.8205 6.72067 10.8218 6.61945C8.92906 7.18123 5.13569 8.27714 3.2651 8.8332C3.24577 8.83914 3.22881 8.85105 3.21667 8.86723C3.20454 8.8834 3.19784 8.90301 3.19754 8.92323V21.2377C2.88902 21.2332 2.17922 21.2409 1.86931 21.2377C1.77096 21.2394 1.67723 21.2797 1.6083 21.3499C1.53937 21.4201 1.50075 21.5145 1.50075 21.6129C1.50075 21.7113 1.53937 21.8057 1.6083 21.8759C1.67723 21.946 1.77096 21.9863 1.86931 21.9881C4.37751 21.9977 12.6116 21.9812 15.1517 21.9881L22.1307 21.9881C22.2293 21.9868 22.3235 21.9467 22.3928 21.8765C22.4621 21.8062 22.5009 21.7115 22.5009 21.6129C22.5009 21.5142 22.4621 21.4196 22.3928 21.3493C22.3235 21.2791 22.2294 21.239 22.1307 21.2377ZM5.17116 20.2359C5.16966 20.3344 5.12947 20.4284 5.05927 20.4975C4.98907 20.5667 4.89448 20.6054 4.79594 20.6054C4.69741 20.6054 4.60282 20.5667 4.53262 20.4975C4.46241 20.4284 4.42223 20.3344 4.42073 20.2359V19.4292C4.42223 19.3306 4.46241 19.2366 4.53262 19.1675C4.60282 19.0983 4.69741 19.0596 4.79594 19.0596C4.89448 19.0596 4.98907 19.0983 5.05927 19.1675C5.12947 19.2366 5.16966 19.3306 5.17116 19.4292V20.2359ZM5.17116 17.1741C5.16966 17.2727 5.12947 17.3666 5.05927 17.4358C4.98907 17.5049 4.89448 17.5437 4.79594 17.5437C4.69741 17.5437 4.60282 17.5049 4.53262 17.4358C4.46241 17.3666 4.42223 17.2727 4.42073 17.1741V16.3674C4.42223 16.2689 4.46242 16.1749 4.53262 16.1058C4.60283 16.0366 4.69741 15.9979 4.79595 15.9979C4.89449 15.9979 4.98908 16.0366 5.05928 16.1058C5.12948 16.1749 5.16966 16.2689 5.17116 16.3675V17.1741ZM5.17116 14.1087C5.16987 14.2073 5.12977 14.3015 5.05955 14.3708C4.98932 14.4401 4.89462 14.479 4.79594 14.479C4.69727 14.479 4.60257 14.4401 4.53234 14.3708C4.46212 14.3015 4.42202 14.2073 4.42073 14.1087V13.3057C4.42105 13.2064 4.46072 13.1113 4.53105 13.0411C4.60138 12.971 4.69664 12.9317 4.79594 12.9317C4.89525 12.9317 4.99051 12.971 5.06084 13.0411C5.13117 13.1113 5.17084 13.2064 5.17116 13.3057V14.1087ZM5.17116 11.0469C5.16987 11.1456 5.12977 11.2398 5.05955 11.3091C4.98932 11.3784 4.89462 11.4173 4.79594 11.4173C4.69727 11.4173 4.60257 11.3784 4.53234 11.3091C4.46212 11.2398 4.42202 11.1456 4.42073 11.0469V10.244C4.42058 10.1946 4.43017 10.1457 4.44895 10.1C4.46774 10.0544 4.49535 10.0129 4.53021 9.9779C4.56507 9.94293 4.60648 9.91519 4.65208 9.89626C4.69768 9.87733 4.74657 9.86758 4.79594 9.86758C4.84532 9.86758 4.89421 9.87733 4.93981 9.89626C4.98541 9.91519 5.02682 9.94293 5.06168 9.9779C5.09654 10.0129 5.12415 10.0544 5.14294 10.1C5.16172 10.1457 5.17131 10.1946 5.17116 10.244V11.0469ZM7.38491 19.9244C7.38363 20.0231 7.34353 20.1173 7.2733 20.1866C7.20308 20.2559 7.10837 20.2948 7.0097 20.2948C6.91103 20.2948 6.81632 20.2559 6.7461 20.1866C6.67587 20.1173 6.63577 20.0231 6.63449 19.9244V19.1215C6.63433 19.0721 6.64392 19.0232 6.66271 18.9775C6.6815 18.9319 6.70911 18.8904 6.74397 18.8554C6.77882 18.8204 6.82024 18.7927 6.86584 18.7738C6.91144 18.7548 6.96033 18.7451 7.0097 18.7451C7.05907 18.7451 7.10796 18.7548 7.15356 18.7738C7.19916 18.7927 7.24058 18.8204 7.27544 18.8554C7.31029 18.8904 7.33791 18.9319 7.35669 18.9775C7.37548 19.0232 7.38507 19.0721 7.38491 19.1215V19.9244ZM7.38491 16.8627C7.38363 16.9614 7.34353 17.0555 7.2733 17.1249C7.20308 17.1942 7.10837 17.233 7.0097 17.233C6.91103 17.233 6.81632 17.1942 6.7461 17.1249C6.67587 17.0555 6.63577 16.9614 6.63449 16.8627V16.0598C6.63577 15.9611 6.67587 15.8669 6.7461 15.7976C6.81632 15.7283 6.91103 15.6894 7.0097 15.6894C7.10837 15.6894 7.20308 15.7283 7.2733 15.7976C7.34353 15.8669 7.38363 15.9611 7.38491 16.0598V16.8627ZM7.38491 13.801C7.38342 13.8995 7.34323 13.9935 7.27303 14.0626C7.20282 14.1318 7.10824 14.1705 7.0097 14.1705C6.91116 14.1705 6.81658 14.1318 6.74637 14.0626C6.67617 13.9935 6.63598 13.8995 6.63449 13.801V12.998C6.63577 12.8994 6.67587 12.8052 6.7461 12.7359C6.81632 12.6665 6.91103 12.6277 7.0097 12.6277C7.10837 12.6277 7.20308 12.6665 7.2733 12.7359C7.34353 12.8052 7.38363 12.8994 7.38491 12.998V13.801ZM7.38491 10.7393C7.38342 10.8378 7.34323 10.9318 7.27303 11.0009C7.20282 11.0701 7.10824 11.1088 7.0097 11.1088C6.91116 11.1088 6.81658 11.0701 6.74637 11.0009C6.67617 10.9318 6.63598 10.8378 6.63449 10.7393V9.93255C6.63598 9.83402 6.67618 9.74004 6.74638 9.67089C6.81659 9.60175 6.91117 9.56299 7.00971 9.56299C7.10825 9.563 7.20283 9.60176 7.27303 9.67091C7.34324 9.74005 7.38342 9.83404 7.38491 9.93257V10.7393ZM9.59865 19.523C9.59722 19.6215 9.55705 19.7156 9.48684 19.7848C9.41663 19.854 9.32201 19.8928 9.22342 19.8928C9.12484 19.8928 9.03022 19.854 8.96001 19.7848C8.8898 19.7156 8.84965 19.6215 8.84822 19.5229V18.72C8.84947 18.6213 8.88955 18.5271 8.95978 18.4577C9.03001 18.3884 9.12473 18.3495 9.22343 18.3495C9.32213 18.3495 9.41685 18.3884 9.48708 18.4577C9.55731 18.5271 9.59739 18.6213 9.59864 18.72L9.59865 19.523ZM9.59865 16.4612C9.59722 16.5598 9.55706 16.6539 9.48685 16.7231C9.41664 16.7923 9.32202 16.831 9.22343 16.831C9.12485 16.831 9.03023 16.7923 8.96002 16.7231C8.88981 16.6539 8.84965 16.5598 8.84822 16.4612V15.6545C8.84962 15.5559 8.88976 15.4618 8.95997 15.3926C9.03019 15.3234 9.12483 15.2846 9.22343 15.2846C9.32204 15.2846 9.41668 15.3234 9.48689 15.3926C9.5571 15.4618 9.59725 15.5559 9.59864 15.6545L9.59865 16.4612ZM9.59865 13.3995C9.59722 13.4981 9.55706 13.5921 9.48685 13.6613C9.41664 13.7305 9.32202 13.7693 9.22343 13.7693C9.12485 13.7693 9.03023 13.7305 8.96002 13.6613C8.88981 13.5921 8.84965 13.4981 8.84822 13.3995V12.5928C8.84962 12.4942 8.88976 12.4001 8.95997 12.3309C9.03019 12.2617 9.12483 12.2228 9.22343 12.2228C9.32204 12.2228 9.41668 12.2617 9.48689 12.3309C9.5571 12.4001 9.59725 12.4942 9.59864 12.5928L9.59865 13.3995ZM9.59865 10.3378C9.59722 10.4364 9.55706 10.5304 9.48685 10.5996C9.41664 10.6688 9.32202 10.7076 9.22343 10.7076C9.12485 10.7076 9.03023 10.6688 8.96002 10.5996C8.88981 10.5304 8.84965 10.4364 8.84822 10.3378V9.53108C8.84962 9.43248 8.88976 9.3384 8.95997 9.26917C9.03019 9.19994 9.12483 9.16113 9.22343 9.16113C9.32204 9.16113 9.41668 9.19994 9.48689 9.26917C9.5571 9.3384 9.59725 9.43248 9.59864 9.53108L9.59865 10.3378ZM19.5343 21.2377H18.7838V5.61387C18.7854 5.51536 18.8256 5.42141 18.8958 5.35229C18.966 5.28316 19.0605 5.24442 19.159 5.24442C19.2576 5.24442 19.3521 5.28316 19.4223 5.35229C19.4925 5.42141 19.5327 5.51536 19.5343 5.61387L19.5343 21.2377Z" fill="#072D2B"/>
</svg>
