<svg width="24" height="24" viewBox="0 0 24 24" fill="none" xmlns="http://www.w3.org/2000/svg">
<path fill-rule="evenodd" clip-rule="evenodd" d="M7.18559 3.6428H19.3052C20.4436 3.6428 21.375 4.57418 21.375 5.71258V19.5738C21.375 20.7122 20.4436 21.6436 19.3052 21.6436H5.44478C4.30638 21.6436 3.375 20.7122 3.375 19.5738V19.5066C4.16423 18.649 5.47663 18.2229 6.58435 19.1928L7.48621 19.982V4.7847C7.48621 4.37066 7.37707 3.9811 7.18559 3.6428ZM5.15853 3C6.13963 3 6.94206 3.8036 6.94206 4.7847V18.7838C5.88173 17.8555 4.43533 17.8555 3.375 18.7838V4.7847C3.375 3.8036 4.17743 3 5.15853 3ZM14.0832 12.9155H8.91203V19.4837C8.91203 19.6301 9.03321 19.7525 9.1808 19.7525H14.0836V12.9155H14.0832ZM9.18041 4.99171H20.07C20.2207 4.99171 20.3419 5.11289 20.3419 5.26359V19.4837C20.3419 19.9307 19.9775 20.2951 19.5305 20.2951H8.63976C8.48984 20.2951 8.36788 20.1739 8.36788 20.0232V5.80308C8.36788 5.35603 8.7322 4.99171 9.18041 4.99171ZM14.0832 5.53431H9.18041C9.03282 5.53431 8.91164 5.65665 8.91164 5.80308V8.14164H14.0828V5.5347L14.0832 5.53431ZM8.91203 8.6854V12.3713H14.3551C14.5058 12.3713 14.6269 12.4937 14.6269 12.6432V16.0164H19.7981V10.4402H14.3551C14.2051 10.4402 14.0832 10.3178 14.0832 10.1683V8.6854H8.91203ZM14.6273 19.7525H19.5313C19.6777 19.7525 19.7989 19.6301 19.7989 19.4837V16.5606H14.6277V19.7525H14.6273ZM19.7985 5.80308C19.7985 5.65665 19.6773 5.53547 19.532 5.53431H14.6273V9.89643H19.7985V5.80308Z" fill="#072D2B"/>
</svg>
