<svg width="24" height="24" viewBox="0 0 24 24" fill="none" xmlns="http://www.w3.org/2000/svg">
<g clip-path="url(#clip0_372_3079)">
<path d="M3.31038 16.5977H9.1035V19.908H3.31038V16.5977Z" fill="#072D2B"/>
<path d="M13.2412 13.3611V15.7694H19.0343V12.459H17.4785L13.2412 13.3611Z" fill="#072D2B"/>
<path d="M8.85505 12.459H6.62061V15.7694H12.4137V13.5349L9.7737 14.0976C9.70833 14.1106 9.64186 14.1176 9.57503 14.1183C9.23774 14.1144 8.92683 13.9356 8.75379 13.6461C8.58076 13.3566 8.5705 12.9979 8.72669 12.699L8.85505 12.459Z" fill="#072D2B"/>
<path d="M0.827641 14.1143H0V15.7694H5.79312V12.459H0V13.2866H0.827641C1.05616 13.2866 1.24146 13.4719 1.24146 13.7004C1.24146 13.929 1.05616 14.1143 0.827641 14.1143ZM2.48274 13.2866H4.13802C4.36654 13.2866 4.55166 13.4719 4.55166 13.7004C4.55166 13.929 4.36654 14.1143 4.13802 14.1143H2.48274C2.25422 14.1143 2.06892 13.929 2.06892 13.7004C2.06892 13.4719 2.25422 13.2866 2.48274 13.2866Z" fill="#072D2B"/>
<path d="M9.93114 16.5977H15.7243V19.908H9.93114V16.5977Z" fill="#072D2B"/>
<path d="M14.0318 10.225C13.9018 10.2241 13.7795 10.1629 13.7007 10.0595C13.5643 9.87655 13.6013 9.61763 13.7835 9.48012L15.4924 8.19746L13.6222 5.7063C13.5962 5.67041 13.5548 5.64899 13.5103 5.64844H13.5021C13.4702 5.65063 13.442 5.66949 13.4277 5.69806L9.45525 13.0884C9.43382 13.1355 9.43968 13.1906 9.47081 13.232C9.50176 13.2734 9.55303 13.2944 9.60411 13.2871L17.8139 11.5408C17.8461 11.5379 17.8728 11.5144 17.8802 11.4829C17.8964 11.4395 17.8886 11.3907 17.8595 11.3546L15.989 8.85939L14.2801 10.1422C14.2081 10.1952 14.1212 10.2241 14.0318 10.225Z" fill="#072D2B"/>
<path d="M16.5517 16.5977H22.345V19.908H16.5517V16.5977Z" fill="#072D2B"/>
<path d="M13.2412 20.7354H19.0343V24.0457H13.2412V20.7354Z" fill="#072D2B"/>
<path d="M0 20.7354H5.79312V24.0457H0V20.7354Z" fill="#072D2B"/>
<path d="M6.62061 20.7354H12.4137V24.0457H6.62061V20.7354Z" fill="#072D2B"/>
<path d="M23.5203 0.542307C23.1079 -0.00463196 22.3312 -0.115594 21.7823 0.294014L18.3684 2.85549C18.1862 2.993 18.1492 3.25173 18.2857 3.43484L18.6499 3.91897L17.7891 4.56442C17.4044 4.85208 17.1898 5.31387 17.2181 5.79343L17.2595 6.53831C17.2703 6.74082 17.1786 6.9351 17.0154 7.0554L15.4926 8.19761L15.9891 8.85954L17.5119 7.71751C17.8966 7.4315 18.1112 6.97117 18.083 6.49271L18.0416 5.74784C18.0315 5.5444 18.1231 5.34903 18.2857 5.22653L19.1464 4.5809L19.5105 5.06503C19.5775 5.15201 19.6753 5.20987 19.7836 5.22653C19.8027 5.23001 19.8221 5.23148 19.8415 5.23056C19.9311 5.23038 20.0182 5.20145 20.0898 5.1478L23.5036 2.58651C24.0519 2.17507 24.163 1.39705 23.7519 0.84846L23.5203 0.542307ZM23.0071 1.92439L19.9243 4.23758L19.5603 3.75344L19.1961 3.26931L22.2788 0.956127C22.4618 0.819346 22.7209 0.856334 22.8582 1.03889L23.0898 1.34504C23.1563 1.43239 23.1847 1.5428 23.1686 1.65138C23.1528 1.76015 23.0948 1.85829 23.0071 1.92439Z" fill="#072D2B"/>
</g>
<defs>
<clipPath id="clip0_372_3079">
<rect width="24" height="24" fill="white"/>
</clipPath>
</defs>
</svg>
