<svg width="24" height="24" viewBox="0 0 24 24" fill="none" xmlns="http://www.w3.org/2000/svg">
<g clip-path="url(#clip0_372_3052)">
<path d="M3 14.1562H4.6875V16.2188H3V14.1562Z" fill="#072D2B"/>
<path d="M3 10.0312H4.6875V12.0938H3V10.0312Z" fill="#072D2B"/>
<path d="M6.75 14.1562H8.4375V16.2188H6.75V14.1562Z" fill="#072D2B"/>
<path d="M10.5 14.1562H12.1875V16.2188H10.5V14.1562Z" fill="#072D2B"/>
<path d="M7.875 18.2812H9.5625V22.2188H7.875V18.2812Z" fill="#072D2B"/>
<path d="M13.6875 13.0312H11.826L10.4036 10.1869C10.3804 10.1401 10.3445 10.1008 10.3002 10.0733C10.2558 10.0458 10.2046 10.0312 10.1524 10.0312H8.01937L7.68937 8.38125C7.67641 8.31772 7.64189 8.26063 7.59166 8.21963C7.54144 8.17863 7.47859 8.15624 7.41375 8.15625H5.1L4.43325 7.1565C4.40759 7.11795 4.3728 7.08634 4.33198 7.06449C4.29115 7.04264 4.24556 7.03122 4.19925 7.03125H2.76938L2.32687 4.81875C2.31391 4.75522 2.27939 4.69813 2.22916 4.65713C2.17894 4.61613 2.11609 4.59374 2.05125 4.59375H1.5C1.42541 4.59375 1.35387 4.62338 1.30113 4.67613C1.24838 4.72887 1.21875 4.80041 1.21875 4.875V20.7188H5.0625V18C5.0625 17.9254 5.09213 17.8539 5.14488 17.8011C5.19762 17.7484 5.26916 17.7188 5.34375 17.7188H9.84375C9.91834 17.7188 9.98988 17.7484 10.0426 17.8011C10.0954 17.8539 10.125 17.9254 10.125 18V20.7188H13.9688V13.3125C13.9688 13.2379 13.9391 13.1664 13.8864 13.1136C13.8336 13.0609 13.7621 13.0312 13.6875 13.0312ZM5.25 16.5C5.25 16.5746 5.22037 16.6461 5.16762 16.6989C5.11488 16.7516 5.04334 16.7812 4.96875 16.7812H2.71875C2.64416 16.7812 2.57262 16.7516 2.51988 16.6989C2.46713 16.6461 2.4375 16.5746 2.4375 16.5V13.875C2.4375 13.8004 2.46713 13.7289 2.51988 13.6761C2.57262 13.6234 2.64416 13.5938 2.71875 13.5938H4.96875C5.04334 13.5938 5.11488 13.6234 5.16762 13.6761C5.22037 13.7289 5.25 13.8004 5.25 13.875V16.5ZM5.25 12.375C5.25 12.4496 5.22037 12.5211 5.16762 12.5739C5.11488 12.6266 5.04334 12.6562 4.96875 12.6562H2.71875C2.64416 12.6562 2.57262 12.6266 2.51988 12.5739C2.46713 12.5211 2.4375 12.4496 2.4375 12.375V9.75C2.4375 9.67541 2.46713 9.60387 2.51988 9.55113C2.57262 9.49838 2.64416 9.46875 2.71875 9.46875H4.96875C5.04334 9.46875 5.11488 9.49838 5.16762 9.55113C5.22037 9.60387 5.25 9.67541 5.25 9.75V12.375ZM9 16.5C9 16.5746 8.97037 16.6461 8.91762 16.6989C8.86488 16.7516 8.79334 16.7812 8.71875 16.7812H6.46875C6.39416 16.7812 6.32262 16.7516 6.26988 16.6989C6.21713 16.6461 6.1875 16.5746 6.1875 16.5V13.875C6.1875 13.8004 6.21713 13.7289 6.26988 13.6761C6.32262 13.6234 6.39416 13.5938 6.46875 13.5938H8.71875C8.79334 13.5938 8.86488 13.6234 8.91762 13.6761C8.97037 13.7289 9 13.8004 9 13.875V16.5ZM12.75 16.5C12.75 16.5746 12.7204 16.6461 12.6676 16.6989C12.6149 16.7516 12.5433 16.7812 12.4688 16.7812H10.2188C10.1442 16.7812 10.0726 16.7516 10.0199 16.6989C9.96713 16.6461 9.9375 16.5746 9.9375 16.5V13.875C9.9375 13.8004 9.96713 13.7289 10.0199 13.6761C10.0726 13.6234 10.1442 13.5938 10.2188 13.5938H12.4688C12.5433 13.5938 12.6149 13.6234 12.6676 13.6761C12.7204 13.7289 12.75 13.8004 12.75 13.875V16.5Z" fill="#072D2B"/>
<path d="M5.625 18.2812H7.3125V22.2188H5.625V18.2812Z" fill="#072D2B"/>
<path d="M21 2.4375C21.2589 2.4375 21.4688 2.22763 21.4688 1.96875C21.4688 1.70987 21.2589 1.5 21 1.5C20.7411 1.5 20.5312 1.70987 20.5312 1.96875C20.5312 2.22763 20.7411 2.4375 21 2.4375Z" fill="#072D2B"/>
<path d="M19.4062 3.84375H22.5938C22.6683 3.84375 22.7399 3.81412 22.7926 3.76137C22.8454 3.70863 22.875 3.63709 22.875 3.5625V0.375C22.875 0.300408 22.8454 0.228871 22.7926 0.176126C22.7399 0.123382 22.6683 0.09375 22.5938 0.09375H19.4062C19.3317 0.09375 19.2601 0.123382 19.2074 0.176126C19.1546 0.228871 19.125 0.300408 19.125 0.375V3.5625C19.125 3.63709 19.1546 3.70863 19.2074 3.76137C19.2601 3.81412 19.3317 3.84375 19.4062 3.84375ZM21 0.9375C21.204 0.9375 21.4033 0.997982 21.5729 1.1113C21.7425 1.22461 21.8747 1.38567 21.9528 1.57411C22.0308 1.76254 22.0512 1.96989 22.0114 2.16994C21.9716 2.36998 21.8734 2.55373 21.7292 2.69795C21.585 2.84218 21.4012 2.94039 21.2012 2.98018C21.0011 3.01998 20.7938 2.99955 20.6054 2.9215C20.4169 2.84345 20.2559 2.71127 20.1425 2.54168C20.0292 2.37209 19.9688 2.17271 19.9688 1.96875C19.9689 1.69531 20.0777 1.43312 20.271 1.23977C20.4644 1.04641 20.7266 0.937699 21 0.9375Z" fill="#072D2B"/>
<path d="M14.25 10.9688H13.7813V10.0312H14.25C14.3246 10.0312 14.3961 10.0016 14.4489 9.94887C14.5016 9.89613 14.5313 9.82459 14.5313 9.75C14.5313 9.67541 14.5016 9.60387 14.4489 9.55113C14.3961 9.49838 14.3246 9.46875 14.25 9.46875H13.7813V8.53125H14.25C14.3246 8.53125 14.3961 8.50162 14.4489 8.44887C14.5016 8.39613 14.5313 8.32459 14.5313 8.25C14.5313 8.17541 14.5016 8.10387 14.4489 8.05113C14.3961 7.99838 14.3246 7.96875 14.25 7.96875H13.7813V7.05975H14.2991C14.3737 7.05975 14.4453 7.03012 14.498 6.97737C14.5508 6.92463 14.5804 6.85309 14.5804 6.7785C14.5804 6.70391 14.5508 6.63237 14.498 6.57963C14.4453 6.52688 14.3737 6.49725 14.2991 6.49725H13.7813V5.55975H14.2991C14.3737 5.55975 14.4453 5.53012 14.498 5.47737C14.5508 5.42463 14.5804 5.35309 14.5804 5.2785C14.5804 5.20391 14.5508 5.13237 14.498 5.07963C14.4453 5.02688 14.3737 4.99725 14.2991 4.99725H13.7813V4.5C13.7813 4.42541 13.7516 4.35387 13.6989 4.30113C13.6461 4.24838 13.5746 4.21875 13.5 4.21875C13.4254 4.21875 13.3539 4.24838 13.3011 4.30113C13.2484 4.35387 13.2188 4.42541 13.2188 4.5V4.99725H11.9063V4.5C11.9063 4.42541 11.8766 4.35387 11.8239 4.30113C11.7711 4.24838 11.6996 4.21875 11.625 4.21875C11.5504 4.21875 11.4789 4.24838 11.4261 4.30113C11.3734 4.35387 11.3438 4.42541 11.3438 4.5V4.99725H10.0313V4.5C10.0313 4.42541 10.0016 4.35387 9.94888 4.30113C9.89614 4.24838 9.8246 4.21875 9.75001 4.21875C9.67542 4.21875 9.60388 4.24838 9.55113 4.30113C9.49839 4.35387 9.46876 4.42541 9.46876 4.5V4.99725H8.15626V4.5C8.15626 4.42541 8.12663 4.35387 8.07388 4.30113C8.02114 4.24838 7.9496 4.21875 7.87501 4.21875C7.80042 4.21875 7.72888 4.24838 7.67613 4.30113C7.62339 4.35387 7.59376 4.42541 7.59376 4.5V4.99725H6.28126V2.90625H18.5625V2.34375H17.3018L18.5625 1.335V0.84375H5.62501C5.55042 0.84375 5.47888 0.873382 5.42613 0.926126C5.37339 0.978871 5.34376 1.05041 5.34376 1.125V2.625C5.34376 2.69959 5.37339 2.77113 5.42613 2.82387C5.47888 2.87662 5.55042 2.90625 5.62501 2.90625H5.71876V4.99725H4.40626V4.5C4.40626 4.42541 4.37663 4.35387 4.32388 4.30113C4.27114 4.24838 4.1996 4.21875 4.12501 4.21875C4.05042 4.21875 3.97888 4.24838 3.92613 4.30113C3.87339 4.35387 3.84376 4.42541 3.84376 4.5V4.99725H2.93588L3.04838 5.55975H3.84376V6.46875H4.40626V5.55975H5.71876V7.59375H6.28126V7.05975H7.59376V7.6125C7.75405 7.64793 7.90059 7.72917 8.01556 7.84634C8.13054 7.96352 8.20899 8.11157 8.24138 8.2725L8.29276 8.5305H9.46876V9.468H10.0313V8.5305H11.3438V10.8083L11.9063 11.9333V11.5312H13.2188V12.4688H13.7813V11.5312H14.25C14.3246 11.5312 14.3961 11.5016 14.4489 11.4489C14.5016 11.3961 14.5313 11.3246 14.5313 11.25C14.5313 11.1754 14.5016 11.1039 14.4489 11.0511C14.3961 10.9984 14.3246 10.9688 14.25 10.9688ZM17.5733 1.40625L16.5 2.265L15.4268 1.40625H17.5733ZM15.6983 2.34375H13.5518L14.625 1.485L15.6983 2.34375ZM13.8233 1.40625L12.75 2.265L11.6768 1.40625H13.8233ZM11.9483 2.34375H9.80176L10.875 1.485L11.9483 2.34375ZM10.0733 1.40625L9.00001 2.265L7.92676 1.40625H10.0733ZM5.90626 1.40625H7.02638L8.19826 2.34375H5.90626V1.40625ZM7.59376 6.49725H6.28126V5.55975H7.59376V6.49725ZM9.46876 7.96875H8.15626V7.05975H9.46876V7.96875ZM9.46876 6.49725H8.15626V5.55975H9.46876V6.49725ZM11.3438 7.96875H10.0313V7.05975H11.3438V7.96875ZM11.3438 6.49725H10.0313V5.55975H11.3438V6.49725ZM13.2188 10.9688H11.9063V10.0312H13.2188V10.9688ZM13.2188 9.46875H11.9063V8.53125H13.2188V9.46875ZM13.2188 7.96875H11.9063V7.05975H13.2188V7.96875ZM13.2188 6.49725H11.9063V5.55975H13.2188V6.49725Z" fill="#072D2B"/>
<path d="M14.5312 17.7188H17.9062V18.8438H14.5312V17.7188Z" fill="#072D2B"/>
<path d="M16.7812 14.625C16.7812 14.5504 16.7516 14.4789 16.6989 14.4261C16.6461 14.3734 16.5746 14.3438 16.5 14.3438H14.5312V15.4688H16.7812V14.625Z" fill="#072D2B"/>
<path d="M14.5312 21.0938H16.7812V22.2188H14.5312V21.0938Z" fill="#072D2B"/>
<path d="M14.5312 16.0312H15.0938V17.1562H14.5312V16.0312Z" fill="#072D2B"/>
<path d="M17.625 16.0312H15.6562V17.1562H17.9062V16.3125C17.9062 16.2379 17.8766 16.1664 17.8239 16.1136C17.7711 16.0609 17.6996 16.0312 17.625 16.0312Z" fill="#072D2B"/>
<path d="M14.5312 19.4062H15.0938V20.5312H14.5312V19.4062Z" fill="#072D2B"/>
<path d="M15.6562 20.5312H17.625C17.6996 20.5312 17.7711 20.5016 17.8239 20.4489C17.8766 20.3961 17.9062 20.3246 17.9062 20.25V19.4062H15.6562V20.5312Z" fill="#072D2B"/>
<path d="M14.5312 22.7812H15.0938V23.9062H14.5312V22.7812Z" fill="#072D2B"/>
<path d="M10.125 22.2188H10.5938C10.6683 22.2188 10.7399 22.2484 10.7926 22.3011C10.8454 22.3539 10.875 22.4254 10.875 22.5V23.9062H13.9688V21.2812H10.125V22.2188Z" fill="#072D2B"/>
<path d="M5.0625 21.2812H1.21875V23.3438H0.375C0.300408 23.3438 0.228871 23.3734 0.176126 23.4261C0.123382 23.4789 0.09375 23.5504 0.09375 23.625C0.09375 23.6996 0.123382 23.7711 0.176126 23.8239C0.228871 23.8766 0.300408 23.9062 0.375 23.9062H4.3125V22.5C4.3125 22.4254 4.34213 22.3539 4.39488 22.3011C4.44762 22.2484 4.51916 22.2188 4.59375 22.2188H5.0625V21.2812Z" fill="#072D2B"/>
<path d="M4.875 22.7812H10.3125V23.9062H4.875V22.7812Z" fill="#072D2B"/>
<path d="M17.625 22.7812H15.6562V23.9062H17.9062V23.0625C17.9062 22.9879 17.8766 22.9164 17.8239 22.8636C17.7711 22.8109 17.6996 22.7812 17.625 22.7812Z" fill="#072D2B"/>
<path d="M23.625 23.3438H23.1562V22.6875C23.1562 22.6129 23.1266 22.5414 23.0739 22.4886C23.0211 22.4359 22.9496 22.4062 22.875 22.4062H19.125C19.0504 22.4062 18.9789 22.4359 18.9261 22.4886C18.8734 22.5414 18.8438 22.6129 18.8438 22.6875V23.3438H18.4688V23.9062H23.625C23.6996 23.9062 23.7711 23.8766 23.8239 23.8239C23.8766 23.7711 23.9062 23.6996 23.9062 23.625C23.9062 23.5504 23.8766 23.4789 23.8239 23.4261C23.7711 23.3734 23.6996 23.3438 23.625 23.3438Z" fill="#072D2B"/>
<path d="M22.4062 21.8438V4.40625H21.8438V5.025L21.102 4.40625H20.223L21.6855 5.625L20.1562 6.9V4.40625H19.5938V21.8438H20.1562V19.35L21.6855 20.625L20.223 21.8438H21.102L21.8438 21.225V21.8438H22.4062ZM21.8438 16.275L20.3145 15L21.8438 13.725V16.275ZM21.8438 12.525L20.3145 11.25L21.8438 9.975V12.525ZM21.8438 6.225V8.775L20.3145 7.5L21.8438 6.225ZM20.1562 8.1L21.6855 9.375L20.1562 10.65V8.1ZM20.1562 11.85L21.6855 13.125L20.1562 14.4V11.85ZM20.1562 15.6L21.6855 16.875L20.1562 18.15V15.6ZM20.3145 18.75L21.8438 17.475V20.025L20.3145 18.75Z" fill="#072D2B"/>
</g>
<defs>
<clipPath id="clip0_372_3052">
<rect width="24" height="24" fill="white"/>
</clipPath>
</defs>
</svg>
