<svg width="24" height="24" viewBox="0 0 24 24" fill="none" xmlns="http://www.w3.org/2000/svg">
<path d="M8.07 9.08621V3.44996C8.07 2.90246 7.6275 2.45996 7.08 2.45996H1.74C1.1925 2.45996 0.75 2.90246 0.75 3.44996V9.08621C0.75 9.62996 1.1925 10.0725 1.74 10.0725H7.08C7.6275 10.0725 8.07 9.62996 8.07 9.08621ZM6.33 5.66246C6.33 6.28871 5.81625 6.79871 5.19 6.79871H3.77625V8.14496C3.77625 8.35496 3.6075 8.51996 3.40125 8.51996C3.195 8.51996 3.02625 8.35496 3.02625 8.14496V4.36121C3.02625 4.15496 3.195 3.98621 3.40125 3.98621H5.19C5.81625 3.98621 6.33 4.49996 6.33 5.12621V5.66246Z" fill="#072D2B"/>
<path d="M3.97277 10.75H3.68665V11.0811V21.2088V21.5399H3.97277H4.82852H5.11465V21.2088V11.0811V10.75H4.82852H3.97277Z" fill="#072D2B"/>
<path d="M5.19 4.73633H3.77625V6.04883H5.19C5.40375 6.04883 5.58 5.87633 5.58 5.66258V5.12633C5.58 4.91258 5.40375 4.73633 5.19 4.73633Z" fill="#072D2B"/>
<path d="M22.395 13.9313H21.1575C20.8088 12.9863 20.265 12.1876 20.0888 11.9438C19.7588 11.4826 19.2188 11.2051 18.6488 11.2051H10.9125C10.3425 11.2051 9.80253 11.4826 9.47253 11.9438C9.29628 12.1876 8.75253 12.9826 8.40378 13.9313H7.16628C6.69378 13.9313 6.31128 14.3176 6.31128 14.7863C6.31128 15.1051 6.48753 15.3976 6.76878 15.5438L7.16628 15.7538C7.10628 16.0576 7.08003 16.3801 7.08003 16.7176V20.7938C7.08003 21.2063 7.41753 21.5401 7.83003 21.5401H9.22878C9.64128 21.5401 9.97503 21.2063 9.97503 20.7938V20.4713C11.4488 20.5576 13.275 20.6438 14.7825 20.6438C16.29 20.6438 18.1125 20.5576 19.5863 20.4713V20.7938C19.5863 21.2063 19.92 21.5401 20.3325 21.5401H21.7313C22.1438 21.5401 22.4775 21.2063 22.4775 20.7938V18.2626C22.4813 18.2401 22.4813 18.2138 22.4813 18.1913V16.7176C22.4813 16.3801 22.455 16.0576 22.395 15.7538L22.7925 15.5438C23.0738 15.3976 23.25 15.1051 23.25 14.7863C23.25 14.3176 22.8675 13.9313 22.395 13.9313ZM10.08 12.3826C10.2713 12.1163 10.5825 11.9551 10.9125 11.9551H18.6488C18.9788 11.9551 19.29 12.1163 19.4813 12.3826C19.6275 12.5888 20.0738 13.2376 20.3888 14.0213C18.8363 13.9801 16.1588 13.9313 14.7825 13.9313C13.4063 13.9313 10.7325 13.9801 9.17628 14.0213C9.48753 13.2376 9.93003 12.5888 10.08 12.3826ZM11.7075 17.6326C11.6738 18.0001 11.3138 18.6976 10.2075 18.6976C9.68628 18.6976 9.16128 18.4238 8.73378 17.9288C8.31003 17.4376 8.04378 16.8001 8.10003 16.4213C8.12628 16.2451 8.25753 15.9526 8.89503 15.9676C9.63378 15.9901 11.6138 16.5113 11.7075 17.5613V17.6326ZM16.7025 18.6976H12.8588C12.3863 18.6976 12 18.2963 12 17.8051C12 17.3138 12.3863 16.9126 12.8588 16.9126H16.7025C17.175 16.9126 17.5613 17.3138 17.5613 17.8051C17.5613 18.2963 17.175 18.6976 16.7025 18.6976ZM20.8275 17.9288C20.4 18.4238 19.875 18.6976 19.3538 18.6976C18.2438 18.6976 17.8875 18.0001 17.8538 17.6326V17.5613C17.9475 16.5113 19.9313 15.9901 20.6663 15.9676C21.2963 15.9563 21.435 16.2451 21.4613 16.4213C21.5175 16.8001 21.2513 17.4376 20.8275 17.9288Z" fill="#072D2B"/>
</svg>
