<svg width="24" height="24" viewBox="0 0 24 24" fill="none" xmlns="http://www.w3.org/2000/svg">
<path d="M20 3.5H4C3.72386 3.5 3.5 3.72386 3.5 4V5C3.5 5.27614 3.72386 5.5 4 5.5H20C20.2761 5.5 20.5 5.27614 20.5 5V4C20.5 3.72386 20.2761 3.5 20 3.5Z" fill="#072D2B"/>
<path d="M20 18.5H4C3.72386 18.5 3.5 18.7239 3.5 19V20C3.5 20.2761 3.72386 20.5 4 20.5H20C20.2761 20.5 20.5 20.2761 20.5 20V19C20.5 18.7239 20.2761 18.5 20 18.5Z" fill="#072D2B"/>
<path d="M10.35 14.6502C10.15 14.4502 9.83998 14.4502 9.63998 14.6502C9.43998 14.8502 9.43998 15.1602 9.63998 15.3602L11.64 17.3602C11.84 17.5602 12.15 17.5602 12.35 17.3602L14.35 15.3602C14.55 15.1602 14.55 14.8502 14.35 14.6502C14.15 14.4502 13.84 14.4502 13.64 14.6502L12.49 15.8002V8.21018L13.64 9.36018C13.74 9.46018 13.87 9.51018 13.99 9.51018C14.11 9.51018 14.25 9.46018 14.34 9.36018C14.54 9.16018 14.54 8.85018 14.34 8.65018L12.34 6.65018C12.15 6.46018 11.83 6.45018 11.63 6.65018L9.62998 8.65018C9.42998 8.85018 9.42998 9.16018 9.62998 9.36018C9.82998 9.56018 10.14 9.56018 10.34 9.36018L11.49 8.21018V15.8002L10.34 14.6502H10.35Z" fill="#072D2B"/>
</svg>
