<svg width="24" height="24" viewBox="0 0 24 24" fill="none" xmlns="http://www.w3.org/2000/svg">
<path d="M8.06303 21.5319H10.4923V16.7284H9.40089C8.98633 16.7284 8.62877 16.4508 8.52592 16.0492C8.43292 15.686 8.57224 15.3118 8.86868 15.0963V13.2976L9.87939 13.1417V14.5332L10.9031 13.9723V12.9817L12.042 12.8058V13.3483L12.8477 12.9069V0.576172L8.06303 2.62147V21.5319ZM12.042 11.5725L10.9031 11.7869V9.71328L12.042 9.43227V11.5725ZM12.042 8.19908L10.9031 8.51853V6.44333L12.042 6.05712V8.19908ZM12.042 2.81783V4.82562L10.9031 5.25017L10.9028 3.30659L12.042 2.81783ZM8.86872 4.17823L9.88005 3.74473L9.87972 5.63211L8.86868 6.00706L8.86872 4.17823ZM8.86872 7.13323L9.87977 6.79081V8.80766L8.86872 9.09087V7.13328V7.13323ZM8.86872 10.2139L9.87977 9.96472V11.9816L8.86872 12.1715V10.214V10.2139ZM18.476 2.7417V12.6429L16.6012 11.6157C16.1582 11.3729 15.6474 11.3729 15.2043 11.6157L13.4102 12.5987V0.576172L18.476 2.7417ZM2.79105 8.35644V21.5319H7.50053V6.34325L2.79105 8.35644ZM4.80288 18.3212H3.98074V16.7438L4.80307 16.6635L4.80288 18.3212ZM4.80335 15.7203L3.98074 15.8329V14.2495L4.80335 14.0805V15.7203ZM4.80335 13.1393L3.98074 13.3416V11.7581L4.80335 11.4995V13.1393ZM4.80363 10.5573L3.98078 10.8483V9.36936L4.80391 9.02267L4.80363 10.5573ZM6.59219 18.3212H5.6448V16.5808L6.59219 16.4882V18.3212ZM6.59219 15.4733L5.6448 15.6039V13.9081L6.59219 13.7126V15.4733ZM6.59219 12.6976L5.6448 12.931V11.2342L6.59219 10.9348V12.6976ZM6.59219 9.92089L5.64452 10.2582V8.66914L6.59219 8.26756V9.92089ZM22.5684 15.5265L16.331 12.109C16.0563 11.9585 15.7494 11.9585 15.4747 12.109L9.23725 15.5265C9.09897 15.6022 9.0318 15.757 9.07094 15.9097C9.11003 16.0625 9.2433 16.1659 9.40099 16.1659H11.0549V21.5319H12.3194V18.1847H11.9681C11.8128 18.1847 11.6869 18.0588 11.6869 17.9034C11.6869 17.7481 11.8128 17.6222 11.9681 17.6222H15.0898C15.2451 17.6222 15.371 17.7481 15.371 17.9034C15.371 18.0588 15.2451 18.1847 15.0898 18.1847H14.7385V21.5319H20.7509V16.1659H22.4047C22.5625 16.1659 22.6957 16.0625 22.7348 15.9097C22.7739 15.757 22.7067 15.6022 22.5684 15.5265ZM15.0223 14.3445C15.0223 13.8582 15.4165 13.464 15.9028 13.464C16.3891 13.464 16.7833 13.8582 16.7833 14.3445C16.7833 14.8308 16.3891 15.225 15.9028 15.225C15.4165 15.225 15.0223 14.8308 15.0223 14.3445ZM17.6838 17.5261H16.4437V16.166H17.6838V17.5261ZM19.4862 17.5261H18.2463V16.166H19.4862V17.5261ZM1.25439 23.0729V22.4463C1.25439 22.2528 1.41274 22.0944 1.60624 22.0944H21.9713C22.1648 22.0944 22.3231 22.2528 22.3231 22.4463V23.0729C22.3231 23.2664 22.1648 23.4247 21.9713 23.4247H1.60624C1.41274 23.4247 1.25439 23.2664 1.25439 23.0729Z" fill="#072D2B"/>
</svg>
