<svg width="23" height="24" viewBox="0 0 23 24" fill="none" xmlns="http://www.w3.org/2000/svg">
<g clip-path="url(#clip0_372_3103)">
<path d="M8.85486 5.46957H10.2023C10.2023 5.17971 10.2546 5.07058 10.3496 4.87227C10.4717 4.61739 10.6389 4.26821 10.6389 3.64656C10.6389 3.02491 10.4717 2.67555 10.3496 2.42066C10.2546 2.22236 10.2023 2.11323 10.2023 1.82319C10.2023 1.53333 10.2546 1.4242 10.3496 1.2259C10.4717 0.971012 10.6389 0.621646 10.6389 0H9.29127C9.29127 0.29004 9.23898 0.399171 9.14404 0.597476C9.02191 0.852359 8.85486 1.20154 8.85486 1.82319C8.85486 2.44502 9.02209 2.7942 9.14404 3.04908C9.23898 3.24739 9.29127 3.35652 9.29127 3.64656C9.29127 3.93642 9.23898 4.04555 9.14404 4.24367C9.02209 4.49874 8.85486 4.84792 8.85486 5.46957Z" fill="#072D2B"/>
<path d="M12.0012 5.46957H13.3489C13.3489 5.17971 13.4012 5.07058 13.4961 4.87227C13.6182 4.61739 13.7855 4.26821 13.7855 3.64656C13.7855 3.02491 13.6182 2.67555 13.4961 2.42066C13.4012 2.22236 13.3489 2.11323 13.3489 1.82319C13.3489 1.53333 13.4012 1.4242 13.4961 1.2259C13.6182 0.971012 13.7855 0.621646 13.7855 0H12.4378C12.4378 0.29004 12.3855 0.399171 12.2906 0.597476C12.1685 0.852359 12.0012 1.20154 12.0012 1.82319C12.0012 2.44502 12.1685 2.7942 12.2906 3.04908C12.3855 3.24739 12.4378 3.35652 12.4378 3.64656C12.4378 3.93642 12.3855 4.04555 12.2906 4.24367C12.1685 4.49874 12.0012 4.84792 12.0012 5.46957Z" fill="#072D2B"/>
<path d="M15.1476 5.46957H16.4952C16.4952 5.17971 16.5475 5.07058 16.6425 4.87227C16.7646 4.61739 16.9318 4.26821 16.9318 3.64656C16.9318 3.02491 16.7646 2.67555 16.6425 2.42066C16.5475 2.22236 16.4952 2.11323 16.4952 1.82319C16.4952 1.53333 16.5475 1.4242 16.6425 1.2259C16.7646 0.971012 16.9318 0.621646 16.9318 0H15.5842C15.5842 0.29004 15.5319 0.399171 15.4369 0.597476C15.3148 0.852359 15.1476 1.20154 15.1476 1.82319C15.1476 2.44502 15.3148 2.7942 15.4369 3.04908C15.5319 3.24739 15.5842 3.35652 15.5842 3.64656C15.5842 3.93642 15.5319 4.04555 15.4369 4.24367C15.3148 4.49874 15.1476 4.84792 15.1476 5.46957Z" fill="#072D2B"/>
<path d="M9.0598 6.87695C8.37438 6.87695 7.81689 7.45868 7.81689 8.17389V22.703C7.81689 23.4182 8.37438 23.9999 9.0598 23.9999C9.74503 23.9999 10.3027 23.4182 10.3027 22.703V8.17389C10.3027 7.45868 9.74521 6.87695 9.0598 6.87695Z" fill="#072D2B"/>
<path d="M12.8933 6.87695C12.2079 6.87695 11.6504 7.45868 11.6504 8.17389V22.703C11.6504 23.4182 12.2081 23.9999 12.8933 23.9999C13.5787 23.9999 14.1362 23.4182 14.1362 22.703V8.17389C14.1362 7.45868 13.5787 6.87695 12.8933 6.87695Z" fill="#072D2B"/>
<path d="M16.7268 6.87695C16.0416 6.87695 15.4839 7.45868 15.4839 8.17389V22.703C15.4839 23.4182 16.0416 23.9999 16.7268 23.9999C17.4122 23.9999 17.9699 23.4182 17.9699 22.703V8.17389C17.9699 7.45868 17.4122 6.87695 16.7268 6.87695Z" fill="#072D2B"/>
<path d="M3.98332 14.0501V22.703C3.98332 23.4182 4.54099 23.9999 5.2264 23.9999C5.91164 23.9999 6.4693 23.4182 6.4693 22.703V8.17389C6.4693 7.45868 5.91164 6.87695 5.2264 6.87695C4.54099 6.87695 3.98332 7.45868 3.98332 8.17389V9.82917H1.39364V11.2365H0.0449219V12.6428H1.39364V14.0501H3.98332Z" fill="#072D2B"/>
<path d="M21.8032 9.82917V8.17389C21.8032 7.45868 21.2455 6.87695 20.5603 6.87695C19.8749 6.87695 19.3174 7.45868 19.3174 8.17389V22.703C19.3174 23.4182 19.8749 23.9999 20.5603 23.9999C21.2455 23.9999 21.8032 23.4182 21.8032 22.703V11.2354H23.0442V9.82917H21.8032Z" fill="#072D2B"/>
</g>
<defs>
<clipPath id="clip0_372_3103">
<rect width="23" height="24" fill="white"/>
</clipPath>
</defs>
</svg>
