<svg width="24" height="24" viewBox="0 0 24 24" fill="none" xmlns="http://www.w3.org/2000/svg">
<g clip-path="url(#clip0_61_5197)">
<path fill-rule="evenodd" clip-rule="evenodd" d="M16.1661 0.515625L10.819 2.80139V21.7495H12.4469V17.7664L12.0702 17.8023C11.916 17.8168 11.7793 17.7037 11.7648 17.5496C11.7502 17.3955 11.8633 17.2587 12.0175 17.2441L14.9149 16.9684C15.069 16.9538 15.2058 17.067 15.2203 17.2211C15.2349 17.3752 15.1218 17.5119 14.9676 17.5265L14.5382 17.5673V21.7494H21.5133V2.80139L16.1661 0.515625ZM12.9166 15.2134L11.9059 15.3101V13.3572L12.9166 13.2014V15.2134ZM12.9169 12.0411L11.9059 12.231V10.2735L12.9169 10.0243V12.0411ZM12.9169 8.86725L11.9059 9.15042V7.19283L12.9169 6.85041V8.86725ZM12.9169 5.69175L11.9059 6.06666V4.23783L12.9172 3.80433L12.9169 5.69175ZM15.0792 15.0074L13.9403 15.1165V13.0413L15.0792 12.8654V15.0074ZM15.0792 11.6322L13.9403 11.8465V9.77292L15.0792 9.49186V11.6321V11.6322ZM15.0792 8.25867L13.9403 8.57812V6.50287L15.0792 6.11667V8.25867ZM15.0792 4.88517L13.9403 5.30972L13.94 3.36614L15.0792 2.87737V4.88517H15.0792ZM17.7842 18.4219C17.7842 18.5773 17.6583 18.7032 17.5029 18.7032C17.3476 18.7032 17.2217 18.5773 17.2217 18.4219V2.9722C17.2217 2.81686 17.3476 2.69095 17.5029 2.69095C17.6583 2.69095 17.7842 2.81686 17.7842 2.9722V18.422V18.4219ZM19.121 18.4219C19.121 18.5773 18.995 18.7032 18.8397 18.7032C18.6844 18.7032 18.5585 18.5773 18.5585 18.4219V3.54366C18.5585 3.38831 18.6844 3.26241 18.8397 3.26241C18.995 3.26241 19.121 3.38836 19.121 3.54366V18.422V18.4219ZM20.4577 18.4219C20.4577 18.5773 20.3318 18.7032 20.1765 18.7032C20.0211 18.7032 19.8952 18.5773 19.8952 18.4219V4.11511C19.8952 3.95977 20.0211 3.83386 20.1765 3.83386C20.3318 3.83386 20.4577 3.95977 20.4577 4.11511V18.422V18.4219ZM8.05494 6.03591L2.48684 8.41613V21.7495H4.22525V18.657L3.84852 18.6929C3.69439 18.7074 3.55766 18.5943 3.54313 18.4402C3.52859 18.2861 3.6417 18.1493 3.79583 18.1348L6.69327 17.859C6.84739 17.8445 6.98413 17.9576 6.9987 18.1117C7.01323 18.2659 6.90013 18.4026 6.746 18.4172L6.31658 18.4581V21.7495H10.2565V6.97702L8.05494 6.03591ZM4.49914 15.78L3.67653 15.8926V14.3092L4.49914 14.1402V15.78ZM4.49914 13.199L3.67653 13.4013V11.8178L4.49914 11.5592V13.199ZM4.49942 10.617L3.67658 10.908V9.42905L4.4997 9.08236L4.49942 10.617ZM6.28794 15.533L5.34055 15.6635V13.9677L6.28794 13.7722V15.533ZM6.28794 12.7573L5.34055 12.9907V11.2938L6.28794 10.9944V12.7573ZM6.28794 9.98053L5.34027 10.3178V8.72878L6.28794 8.3272V9.98053ZM0.541626 22.312H23.4584V23.4844H0.541626V22.312Z" fill="#072D2B"/>
</g>
<defs>
<clipPath id="clip0_61_5197">
<rect width="24" height="24" fill="white"/>
</clipPath>
</defs>
</svg>
