<svg width="24" height="24" viewBox="0 0 24 24" fill="none" xmlns="http://www.w3.org/2000/svg">
<path d="M14.0682 1.78875C13.9545 2.2299 13.7209 2.63096 13.3932 2.9475C13.306 3.02496 13.2362 3.1201 13.1885 3.2266C13.1408 3.33311 13.1163 3.44853 13.1167 3.56522C13.117 3.68191 13.1422 3.79719 13.1905 3.9034C13.2389 4.00961 13.3092 4.10432 13.397 4.18125C13.5526 4.31357 13.677 4.47869 13.7613 4.66476C13.8456 4.85084 13.8877 5.05325 13.8845 5.2575C13.8843 5.45996 13.8403 5.65998 13.7555 5.84381C13.6707 6.02765 13.5471 6.19096 13.3932 6.3225C13.3062 6.39955 13.2364 6.49422 13.1887 6.60024C13.1409 6.70626 13.1162 6.82121 13.1162 6.93749C13.1162 7.05377 13.1409 7.16873 13.1887 7.27475C13.2364 7.38077 13.3061 7.47544 13.3932 7.5525C13.5367 7.67472 13.6542 7.82442 13.7388 7.99278C13.8235 8.16114 13.8736 8.34474 13.8862 8.53277C13.8988 8.72079 13.8736 8.90944 13.8121 9.08758C13.7507 9.26572 13.6541 9.42975 13.5283 9.57C13.4034 9.64933 13.3005 9.75883 13.229 9.88842C13.1576 10.018 13.12 10.1635 13.1196 10.3115C13.1192 10.4594 13.1561 10.6051 13.2269 10.7351C13.2976 10.865 13.4 10.975 13.5245 11.055C13.6513 11.1946 13.7488 11.3584 13.811 11.5364C13.8733 11.7145 13.8991 11.9033 13.8868 12.0916C13.8746 12.2798 13.8246 12.4637 13.7398 12.6322C13.655 12.8007 13.5371 12.9505 13.3933 13.0725C13.2974 13.1627 13.2236 13.2737 13.1773 13.397C13.131 13.5202 13.1135 13.6524 13.1261 13.7834C13.1388 13.9144 13.1813 14.0408 13.2503 14.1529C13.3194 14.265 13.4132 14.3598 13.5245 14.43C13.7594 14.6885 13.8899 15.025 13.8906 15.3743C13.8913 15.7236 13.7622 16.0606 13.5283 16.32C13.4162 16.3896 13.3217 16.484 13.252 16.5959C13.1822 16.7078 13.1392 16.8343 13.1261 16.9655C13.1131 17.0967 13.1304 17.2292 13.1767 17.3526C13.223 17.4761 13.2971 17.5872 13.3932 17.6775C13.5484 17.8098 13.6731 17.9742 13.7585 18.1594C13.844 18.3445 13.8883 18.5461 13.8883 18.75C13.8883 18.9539 13.844 19.1554 13.7585 19.3406C13.6731 19.5258 13.5484 19.6902 13.3932 19.8225C13.3062 19.8996 13.2364 19.9942 13.1887 20.1002C13.1409 20.2063 13.1162 20.3212 13.1162 20.4375C13.1162 20.5538 13.1409 20.6687 13.1887 20.7748C13.2364 20.8808 13.3062 20.9754 13.3932 21.0525C13.7209 21.369 13.9545 21.7701 14.0682 22.2112C14.0914 22.2911 14.1389 22.3619 14.2041 22.4136C14.2692 22.4654 14.3489 22.4956 14.432 22.5H18.6995C18.7989 22.4997 18.8941 22.4601 18.9643 22.3898C19.0346 22.3196 19.0742 22.2244 19.0745 22.125V1.875C19.0742 1.77563 19.0346 1.68042 18.9643 1.61016C18.8941 1.5399 18.7989 1.5003 18.6995 1.5H14.432C14.3491 1.50499 14.2697 1.53537 14.2046 1.58703C14.1395 1.63869 14.0919 1.70911 14.0682 1.78875Z" fill="#072D2B"/>
<path d="M11.293 12.0004C11.0055 12.0044 10.7276 11.8968 10.5178 11.7003C10.1738 11.4136 9.74023 11.2566 9.29247 11.2566C8.8447 11.2567 8.41114 11.4138 8.06726 11.7006C7.85733 11.8969 7.57957 12.0043 7.29218 12.0004C6.40698 11.9627 6.37402 11.2272 5.29301 11.2505C5.19482 11.2524 5.10131 11.2927 5.03255 11.3628C4.9638 11.433 4.92529 11.5272 4.92529 11.6255C4.9253 11.7237 4.96382 11.8179 5.03259 11.888C5.10135 11.9582 5.19487 11.9985 5.29305 12.0004C5.58029 11.9965 5.85787 12.104 6.06757 12.3003C6.41131 12.5871 6.84477 12.7442 7.29243 12.7442C7.74009 12.7442 8.17356 12.5872 8.51733 12.3004C8.72725 12.104 9.00511 11.9964 9.29261 12.0004C10.1803 12.0393 10.2133 12.7743 11.293 12.7504C11.3912 12.7484 11.4847 12.7081 11.5534 12.638C11.6221 12.5678 11.6606 12.4736 11.6606 12.3754C11.6606 12.2772 11.6221 12.183 11.5534 12.1128C11.4846 12.0427 11.3912 12.0024 11.293 12.0004Z" fill="#072D2B"/>
<path d="M11.293 15.0004C11.0055 15.0044 10.7276 14.8968 10.5178 14.7003C10.1738 14.4136 9.74023 14.2566 9.29247 14.2566C8.8447 14.2567 8.41114 14.4138 8.06726 14.7006C7.85733 14.8969 7.57957 15.0043 7.29218 15.0004C6.40698 14.9627 6.37402 14.2272 5.29301 14.2505C5.19482 14.2524 5.10131 14.2927 5.03255 14.3628C4.9638 14.433 4.92529 14.5272 4.92529 14.6255C4.9253 14.7237 4.96382 14.8179 5.03259 14.888C5.10135 14.9582 5.19487 14.9985 5.29305 15.0004C5.58029 14.9965 5.85787 15.104 6.06757 15.3003C6.41131 15.5871 6.84477 15.7442 7.29243 15.7442C7.74009 15.7442 8.17356 15.5872 8.51733 15.3004C8.72725 15.104 9.00511 14.9964 9.29261 15.0004C10.1803 15.0393 10.2133 15.7743 11.293 15.7504C11.3912 15.7484 11.4847 15.7081 11.5534 15.638C11.6221 15.5678 11.6606 15.4736 11.6606 15.3754C11.6606 15.2772 11.6221 15.183 11.5534 15.1128C11.4846 15.0427 11.3912 15.0024 11.293 15.0004Z" fill="#072D2B"/>
<path d="M11.293 18.0004C11.0055 18.0044 10.7276 17.8968 10.5178 17.7003C10.1738 17.4136 9.74023 17.2566 9.29247 17.2566C8.8447 17.2567 8.41114 17.4138 8.06726 17.7006C7.85733 17.8969 7.57957 18.0043 7.29218 18.0004C6.40698 17.9627 6.37402 17.2272 5.29301 17.2505C5.19482 17.2524 5.10131 17.2927 5.03255 17.3628C4.9638 17.433 4.92529 17.5272 4.92529 17.6255C4.9253 17.7237 4.96382 17.8179 5.03259 17.888C5.10135 17.9582 5.19487 17.9985 5.29305 18.0004C5.58029 17.9965 5.85787 18.104 6.06757 18.3003C6.41131 18.5871 6.84477 18.7442 7.29243 18.7442C7.74009 18.7442 8.17356 18.5872 8.51733 18.3004C8.72725 18.104 9.00511 17.9964 9.29261 18.0004C10.1803 18.0393 10.2133 18.7743 11.293 18.7504C11.3912 18.7484 11.4847 18.7081 11.5534 18.638C11.6221 18.5678 11.6606 18.4736 11.6606 18.3754C11.6606 18.2772 11.6221 18.183 11.5534 18.1128C11.4846 18.0427 11.3912 18.0024 11.293 18.0004Z" fill="#072D2B"/>
<path d="M11.293 9.00041C11.0055 9.00439 10.7276 8.89683 10.5178 8.7003C10.1738 8.41358 9.74023 8.25658 9.29247 8.25663C8.8447 8.25667 8.41114 8.41376 8.06726 8.70055C7.85733 8.89687 7.57957 9.00433 7.29218 9.00041C6.40698 8.96274 6.37402 8.22724 5.29301 8.25045C5.19482 8.25237 5.10131 8.29273 5.03255 8.36284C4.9638 8.43296 4.92529 8.52725 4.92529 8.62545C4.9253 8.72366 4.96382 8.81794 5.03259 8.88805C5.10135 8.95816 5.19487 8.9985 5.29305 9.00041C5.58029 8.99651 5.85787 9.10401 6.06757 9.30033C6.41131 9.5871 6.84477 9.74418 7.29243 9.7442C7.74009 9.74422 8.17356 9.58718 8.51733 9.30045C8.72725 9.10396 9.00511 8.99643 9.29261 9.00041C10.1803 9.03932 10.2133 9.77426 11.293 9.75041C11.3912 9.74844 11.4847 9.70807 11.5534 9.63795C11.6221 9.56784 11.6606 9.47357 11.6606 9.3754C11.6606 9.27722 11.6221 9.18296 11.5534 9.11285C11.4846 9.04274 11.3912 9.00237 11.293 9.00041Z" fill="#072D2B"/>
<path d="M11.293 6.00041C11.0055 6.00439 10.7276 5.89683 10.5178 5.7003C10.1738 5.41358 9.74023 5.25658 9.29247 5.25663C8.8447 5.25667 8.41114 5.41376 8.06726 5.70055C7.85733 5.89687 7.57957 6.00433 7.29218 6.00041C6.40698 5.96274 6.37402 5.22724 5.29301 5.25045C5.19482 5.25237 5.10131 5.29273 5.03255 5.36284C4.9638 5.43296 4.92529 5.52725 4.92529 5.62545C4.9253 5.72366 4.96382 5.81794 5.03259 5.88805C5.10135 5.95816 5.19487 5.9985 5.29305 6.00041C5.58029 5.99651 5.85787 6.10401 6.06757 6.30033C6.41131 6.5871 6.84477 6.74418 7.29243 6.7442C7.74009 6.74422 8.17356 6.58718 8.51733 6.30045C8.72725 6.10396 9.00511 5.99643 9.29261 6.00041C10.1803 6.03932 10.2133 6.77426 11.293 6.75041C11.3912 6.74844 11.4847 6.70807 11.5534 6.63795C11.6221 6.56784 11.6606 6.47357 11.6606 6.3754C11.6606 6.27722 11.6221 6.18296 11.5534 6.11285C11.4846 6.04274 11.3912 6.00237 11.293 6.00041Z" fill="#072D2B"/>
</svg>
