<svg width="107" height="275" viewBox="0 0 107 275" fill="none" xmlns="http://www.w3.org/2000/svg">
<path d="M29.7524 79.2265H45.893V61.711H60.8976V79.2265H77.0484H77.0611V56.041H77.0484V55.4946H77.0611V31.6891H77.0484H60.8976V48.6404H45.893V31.6891H29.7524V79.2265Z" fill="#F2FFE6"/>
<path d="M29.7881 104.577V79.2239H13.6271V104.577C12.5699 105.21 10.2979 105.899 6.81357 106.636C3.11325 107.482 0.843754 108.222 0 108.854V110.915H43.4152V108.854C42.5689 108.222 40.2969 107.482 36.6016 106.636C33.1148 105.899 30.8428 105.21 29.7881 104.577ZM0 2.05856C0.843754 2.69391 3.11325 3.43347 6.81357 4.27722C10.2979 5.01678 12.5699 5.70296 13.6271 6.33578V31.6891H29.7881V6.33578C30.8428 5.70296 33.1148 5.01678 36.6016 4.27722C40.2969 3.43347 42.5689 2.69391 43.4152 2.05856V0H0V2.05856Z" fill="#F2FFE6"/>
<path d="M93.1889 104.577V79.2239H77.028V104.577C75.9708 105.21 73.7013 105.899 70.2144 106.636C66.5167 107.482 64.2446 108.222 63.4009 108.854V110.915H106.816V108.854C105.97 108.222 103.7 107.482 100.003 106.636C96.5182 105.899 94.2436 105.21 93.1889 104.577Z" fill="#F2FFE6"/>
<path d="M63.4009 0V2.05856C64.2446 2.69391 66.5167 3.43347 70.2144 4.27722C73.7013 5.01678 75.9708 5.70296 77.028 6.33578V31.6891H93.1889V6.33578C94.2436 5.70296 96.5182 5.01678 100.003 4.27722C103.7 3.43347 105.97 2.69391 106.816 2.05856V0H63.4009Z" fill="#F2FFE6"/>
<path d="M53.0693 241.362C62.22 241.362 69.6377 248.78 69.6377 257.931C69.6376 267.082 62.22 274.499 53.0693 274.499C43.9186 274.499 36.5001 267.082 36.5 257.931C36.5 248.78 43.9185 241.362 53.0693 241.362Z" fill="#FF9271" stroke="#FF9271"/>
<path d="M52.9998 254L52.9998 143" stroke="#FF9271" stroke-width="3" stroke-miterlimit="10"/>
</svg>
