<svg width="36" height="46" viewBox="0 0 36 46" fill="none" xmlns="http://www.w3.org/2000/svg">
<path d="M18 42.5C18.8284 42.5 19.5 43.1716 19.5 44C19.5 44.8284 18.8284 45.5 18 45.5C17.1716 45.5 16.5 44.8284 16.5 44C16.5 43.1716 17.1716 42.5 18 42.5Z" fill="#FF9271" stroke="#FF9271"/>
<path d="M18 42V36" stroke="#FF9271" stroke-width="0.5" stroke-miterlimit="10"/>
<rect x="0.25" y="0.25" width="35.5" height="35.5" fill="white" stroke="#8DDBB0" stroke-width="0.5"/>
<g clip-path="url(#clip0_502_3139)">
<path d="M21.8632 17.1211C21.6366 17.1328 21.539 17.3828 21.3749 17.4961C21.164 17.7109 20.7343 17.668 20.5507 17.4766C20.3866 17.3281 20.2421 17.043 19.9882 17.1406C19.8359 17.2109 19.7577 17.3789 19.6288 17.4805C19.2577 17.8047 18.8202 17.5977 18.5585 17.2344C18.3906 17.0469 18.1679 17.1055 18.0156 17.3164C17.6913 17.7695 17.1484 17.7188 16.8671 17.3203C16.7773 17.2109 16.6835 17.1289 16.5546 17.1211C16.3515 17.1211 16.2382 17.3594 16.0937 17.4805C15.7109 17.8047 15.2812 17.5977 15.0234 17.2344C14.8984 17.0781 14.6796 17.0977 14.5507 17.2383C14.2538 17.6875 13.6835 17.8086 13.3281 17.3203C13.2734 17.2578 13.2343 17.2109 13.1874 17.1758V22.2422C15.6835 22.3438 15.6288 25.7305 14.4687 27.2852C14.2968 27.5156 14.0859 27.7344 13.8515 27.8867C13.914 27.9023 13.9804 27.9102 14.0468 27.9102H22.5741V17.6172C22.2421 17.5508 22.164 17.1328 21.8632 17.1211ZM21.039 21.1445C21.039 21.2383 20.9609 21.3164 20.8671 21.3164H15.0741C14.9804 21.3164 14.9023 21.2383 14.9023 21.1445V19.3398C14.9023 19.2461 14.9804 19.168 15.0741 19.168H20.871C20.9648 19.168 21.0429 19.2461 21.0429 19.3398V21.1445H21.039ZM23.332 16.8594C23.4257 16.8086 23.5273 16.7813 23.6327 16.7813C24.0195 16.7891 24.1249 17.0391 24.3202 17.2188C24.4491 17.3242 24.5898 17.3203 24.7148 17.2188C24.8163 17.1328 24.9023 16.9844 25.0234 16.9063C25.2734 16.7305 25.5859 16.7344 25.8163 16.9336L26.9726 11.4492C26.9921 11.3516 27.0038 11.2578 27.0038 11.1563C27.0351 10.0742 25.7109 9.35156 24.8202 9.97266C24.5038 10.1797 24.2851 10.4961 24.207 10.8672L22.8554 17.2773C23.0468 17.1758 23.1288 16.9648 23.332 16.8594ZM24.6835 12.1445C24.7812 11.832 25.2031 11.2422 26.1054 11.2656C26.3281 11.2734 26.3241 11.6055 26.0976 11.6094C25.246 11.5859 25.0195 12.2227 25.0077 12.25C24.9843 12.3203 24.9179 12.3672 24.8437 12.3672C24.7343 12.3672 24.6484 12.25 24.6835 12.1445ZM24.2929 14C24.3906 13.6875 24.8124 13.1016 25.7148 13.1211C25.9648 13.1406 25.914 13.4961 25.6679 13.4609C24.832 13.4609 24.621 14.0938 24.621 14.1016C24.5976 14.1758 24.5312 14.2227 24.457 14.2227C24.3437 14.2227 24.2577 14.1055 24.2929 14ZM23.9023 15.8516C23.9999 15.5391 24.4218 14.957 25.3241 14.9727C25.5468 14.9805 25.539 15.3125 25.3163 15.3164C24.5116 15.2734 24.207 15.9492 24.2304 15.957C24.1601 16.1719 23.8359 16.0664 23.9023 15.8516ZM11.4335 22.5195C11.3281 21.9766 11.2421 20.9453 11.9374 20.4297C11.9804 20.3984 12.0312 20.3906 12.0781 20.4023C12.0585 20.4063 12.039 20.4141 12.0234 20.4297C11.3202 20.9531 11.414 22.0039 11.5234 22.543C11.4921 22.5313 11.4609 22.5273 11.4335 22.5195ZM15.2421 19.5117H20.6952V20.9766H15.2421V19.5117ZM27.0038 17.1797L26.8515 27.0664C26.8476 27.5352 26.4609 27.9141 25.996 27.9141H22.9218V17.6172C23.1562 17.5625 23.2851 17.3438 23.4452 17.1953C23.6249 17.0586 23.8046 17.125 23.9452 17.3203C24.0585 17.4531 24.2187 17.6406 24.5195 17.6406C24.707 17.6406 24.8398 17.5703 24.9413 17.4805C25.0976 17.3516 25.1952 17.1289 25.4062 17.1211C25.5741 17.1133 25.6874 17.2969 25.7968 17.4063C25.8984 17.5156 26.0429 17.6406 26.2968 17.6406C26.6913 17.6367 26.7929 17.3594 27.0038 17.1797ZM12.3476 27.6719C12.2851 27.6406 12.2109 27.6484 12.1562 27.6914C10.8085 28.6875 9.40618 26.8867 9.11321 25.5273C8.67181 23.9141 9.48431 22.8242 10.9101 22.793C11.1952 22.793 11.457 22.8594 11.6952 22.9805C11.746 23.0039 11.8046 23 11.8476 22.9688C12.4804 22.4258 13.707 22.4648 14.2929 23.0352C14.7382 23.4688 14.9179 24.1602 14.8984 24.8867C14.8671 26.2344 13.9531 28.3906 12.3476 27.6719ZM20.3827 13.7773L21.8124 13.8711L21.6171 16.8242C21.4843 16.8828 21.3866 16.9883 21.2968 17.0977C20.9531 17.4961 20.789 17.2266 20.5156 16.9414C20.3984 16.8203 20.1327 16.7383 19.9335 16.8008L20.1171 14.0078C20.1288 13.8711 20.246 13.7656 20.3827 13.7773ZM18.4374 16.7891L18.6991 12.8164C18.7226 12.4844 18.8984 12.1875 19.1796 12.0195C19.5546 11.7852 19.7968 11.3906 19.8202 10.957L19.8945 9.84375L21.0741 9.92188L20.9999 11.0352C20.9726 11.4766 21.1601 11.9023 21.496 12.1758C21.7499 12.3789 21.8866 12.6992 21.8671 13.0273L21.832 13.5313L20.4023 13.4375C20.0781 13.418 19.7968 13.6602 19.7734 13.9844C19.7734 13.9844 19.5781 16.9609 19.5702 17.0391C19.0429 17.7266 18.9491 16.8555 18.4374 16.7891ZM14.1523 17.1758C13.3593 14.9453 13.0195 11.7266 13.7773 11.4375C14.6601 11.0703 17.2968 15.0195 17.7265 17.1367C17.5546 17.3711 17.2851 17.332 17.1327 17.1016C16.8359 16.6797 16.289 16.6797 15.9882 17.1016C15.7968 17.375 15.539 17.3555 15.3632 17.1016C15.2148 16.9063 15.0156 16.7695 14.7656 16.7852C14.4726 16.8008 14.3124 16.9688 14.1523 17.1758ZM21.2421 9.58984L19.7695 9.49219L19.8515 8.02344L21.3359 8.12109L21.2421 9.58984Z" fill="#156B62"/>
</g>
<defs>
<clipPath id="clip0_502_3139">
<rect width="20" height="20" fill="white" transform="translate(8 8)"/>
</clipPath>
</defs>
</svg>
