<svg width="53" height="56" viewBox="0 0 53 56" fill="none" xmlns="http://www.w3.org/2000/svg">
<g clip-path="url(#clip0_34_133)">
<path d="M14.7698 40.0666H22.7735V31.3812H30.2139V40.0666H38.2226H38.2289V28.5696H38.2226V28.2987H38.2289V16.4941H38.2226H30.2139V24.8998H22.7735V16.4941H14.7698V40.0666Z" fill="#F2FFE6"/>
<path d="M14.7875 52.6382V40.0662H6.7737V52.6382C6.24945 52.952 5.1228 53.2936 3.39504 53.659C1.56015 54.0787 0.434767 54.4454 0.0163727 54.7592V55.7812H21.5448V54.7592C21.1251 54.4454 19.9985 54.0787 18.1661 53.659C16.4371 53.2936 15.3105 52.952 14.7875 52.6382ZM0.0163727 1.80203C0.434767 2.11709 1.56015 2.48381 3.39504 2.90221C5.1228 3.26893 6.24945 3.60919 6.7737 3.92299V16.495H14.7875V3.92299C15.3105 3.60919 16.4371 3.26893 18.1661 2.90221C19.9985 2.48381 21.1251 2.11709 21.5448 1.80203V0.78125H0.0163727V1.80203Z" fill="#F2FFE6"/>
<path d="M46.2263 52.6384V40.0664H38.2125V52.6384C37.6883 52.9522 36.5629 53.2937 34.8339 53.6592C33.0002 54.0788 31.8736 54.4456 31.4552 54.7594V55.7814H52.9836V54.7594C52.564 54.4456 51.4386 54.0788 49.605 53.6592C47.8772 53.2937 46.7493 52.9522 46.2263 52.6384Z" fill="#F2FFE6"/>
<path d="M31.4552 0.78125V1.80203C31.8736 2.11709 33.0002 2.48381 34.8339 2.90221C36.5629 3.26893 37.6883 3.60919 38.2125 3.92299V16.495H46.2263V3.92299C46.7493 3.60919 47.8772 3.26893 49.605 2.90221C51.4386 2.48381 52.564 2.11709 52.9836 1.80203V0.78125H31.4552Z" fill="#F2FFE6"/>
</g>
<defs>
<clipPath id="clip0_34_133">
<rect width="52.9673" height="55" fill="white" transform="translate(0.0163727 0.78125)"/>
</clipPath>
</defs>
</svg>
