<svg width="305" height="300" viewBox="0 0 305 300" fill="none" xmlns="http://www.w3.org/2000/svg">
<g opacity="0.24" clip-path="url(#clip0_52_2487)">
<path d="M-0.907043 132.002H3.15701V127.577H6.93653V132.002H11.0044H11.0083V126.147H11.0044V126.009H11.0083V120H11.0044H6.93653V124.278H3.15701V120H-0.907043V132.002Z" fill="#005D56"/>
<path d="M-0.899382 138.4V131.998H-4.97112V138.4C-5.23642 138.558 -5.8093 138.735 -6.68594 138.92C-7.6164 139.132 -8.18928 139.321 -8.40075 139.479V140H2.53411V139.479C2.32265 139.321 1.74975 139.132 0.819284 138.92C-0.0573502 138.735 -0.630236 138.562 -0.895533 138.4H-0.899382ZM-8.40075 112.519C-8.18928 112.681 -7.6164 112.866 -6.68594 113.078C-5.8093 113.263 -5.23642 113.437 -4.97112 113.599V120H-0.899382V113.599C-0.634084 113.44 -0.0611868 113.267 0.815448 113.078C1.74591 112.866 2.3188 112.677 2.53026 112.519V111.999H-8.4046V112.519H-8.40075Z" fill="#005D56"/>
<path d="M15.0685 138.4V131.998H10.9967V138.4C10.7314 138.558 10.1585 138.735 9.28189 138.92C8.35143 139.132 7.77855 139.321 7.56708 139.479V139.999H18.5019V139.479C18.2905 139.321 17.7176 139.132 16.7871 138.92C15.9105 138.735 15.3376 138.562 15.0723 138.4H15.0685Z" fill="#005D56"/>
<path d="M7.56708 111.999V112.519C7.77855 112.681 8.35144 112.866 9.2819 113.078C10.1585 113.263 10.7314 113.437 10.9967 113.599V120H15.0685V113.599C15.3338 113.44 15.9066 113.267 16.7833 113.078C17.7137 112.866 18.2866 112.677 18.4981 112.519V111.999H7.56323H7.56708Z" fill="#005D56"/>
<path d="M25.9918 159.998H30.0558V155.577H33.8353V159.998H37.9032H37.9071V154.147H37.9032V154.009H37.9071V148H37.9032H33.8353V152.278H30.0558V148H25.9918V159.998Z" fill="#005D56"/>
<path d="M26.0033 166.4V159.998H21.9315V166.4C21.6662 166.558 21.0934 166.735 20.2167 166.92C19.2863 167.132 18.7134 167.321 18.5019 167.479V168H29.4368V167.479C29.2253 167.321 28.6524 167.132 27.7219 166.92C26.8453 166.735 26.2724 166.562 26.0071 166.4H26.0033ZM18.4981 140.519C18.7095 140.681 19.2824 140.866 20.2129 141.078C21.0895 141.263 21.6624 141.437 21.9277 141.599V148H25.9994V141.599C26.2647 141.44 26.8376 141.267 27.7143 141.078C28.6447 140.866 29.2176 140.677 29.4291 140.519V139.999H18.4942V140.519H18.4981Z" fill="#005D56"/>
<path d="M41.9673 166.4V159.998H37.8955V166.4C37.6302 166.558 37.0573 166.735 36.1807 166.92C35.2502 167.132 34.6774 167.321 34.4659 167.479V167.999H45.4007V167.479C45.1893 167.321 44.6164 167.132 43.6859 166.92C42.8093 166.735 42.2364 166.562 41.9711 166.4H41.9673Z" fill="#005D56"/>
<path d="M34.4659 139.999V140.519C34.6774 140.681 35.2502 140.866 36.1807 141.078C37.0573 141.263 37.6302 141.437 37.8955 141.599V148H41.9673V141.599C42.2326 141.44 42.8054 141.267 43.6821 141.078C44.6125 140.866 45.1854 140.677 45.3969 140.519V139.999H34.462H34.4659Z" fill="#005D56"/>
<path d="M79.7933 159.998H83.8574V155.577H87.6369V159.998H91.7048V154.147V154.009V148H87.6369V152.278H83.8574V148H79.7933V159.998Z" fill="#005D56"/>
<path d="M79.801 166.4V159.998H75.7293V166.4C75.464 166.558 74.8911 166.735 74.0144 166.92C73.084 167.132 72.5111 167.321 72.2996 167.479V168H83.2345V167.479C83.023 167.321 82.4501 167.132 81.5197 166.92C80.643 166.735 80.0701 166.562 79.8048 166.4H79.801ZM72.2996 140.519C72.5111 140.681 73.084 140.866 74.0144 141.078C74.8911 141.263 75.464 141.437 75.7293 141.599V148H79.801V141.599C80.0663 141.44 80.6392 141.267 81.5158 141.078C82.4463 140.866 83.0192 140.677 83.2306 140.519V139.999H72.2958V140.519H72.2996Z" fill="#005D56"/>
<path d="M95.7688 166.4V159.998H91.6971V166.4C91.4318 166.558 90.8589 166.735 89.9823 166.92C89.0518 167.132 88.4789 167.321 88.2675 167.479V167.999H99.2023V167.479C98.9909 167.321 98.418 167.132 97.4875 166.92C96.6109 166.735 96.038 166.562 95.7727 166.4H95.7688Z" fill="#005D56"/>
<path d="M88.2675 139.999V140.519C88.4789 140.681 89.0518 140.866 89.9823 141.078C90.8589 141.263 91.4318 141.437 91.6971 141.599V148H95.7688V141.599C96.0341 141.44 96.607 141.267 97.4836 141.078C98.4141 140.866 98.987 140.677 99.1985 140.519V139.999H88.2636H88.2675Z" fill="#005D56"/>
<path d="M52.8945 132.002H56.9585V127.577H60.7342V132.002H64.8021H64.8059V126.147H64.8021V126.009H64.8059V120H64.8021H60.7342V124.278H56.9585V120H52.8945V132.002Z" fill="#8DDBB0"/>
<path d="M52.9021 138.4V131.998H48.8304V138.4C48.5651 138.558 47.9922 138.735 47.1156 138.92C46.1851 139.132 45.6122 139.321 45.4008 139.479V140H56.3356V139.479C56.1242 139.321 55.5513 139.132 54.6208 138.92C53.7442 138.735 53.1713 138.562 52.906 138.4H52.9021ZM45.4008 112.519C45.6122 112.681 46.1851 112.866 47.1156 113.078C47.9922 113.263 48.5651 113.437 48.8304 113.599V120H52.9021V113.599C53.1674 113.44 53.7403 113.267 54.617 113.078C55.5474 112.866 56.1203 112.677 56.3318 112.519V111.999H45.3969V112.519H45.4008Z" fill="#005D56"/>
<path d="M68.8661 138.4V131.998H64.7944V138.4C64.5291 138.558 63.9562 138.735 63.0796 138.92C62.1491 139.132 61.5762 139.321 61.3647 139.479V139.999H72.2996V139.479C72.0881 139.321 71.5153 139.132 70.5848 138.92C69.7082 138.735 69.1353 138.562 68.87 138.4H68.8661Z" fill="#005D56"/>
<path d="M61.3647 111.999V112.519C61.5762 112.681 62.1491 112.866 63.0796 113.078C63.9562 113.263 64.5291 113.437 64.7944 113.599V120H68.8661V113.599C69.1314 113.44 69.7043 113.267 70.5809 113.078C71.5114 112.866 72.0843 112.677 72.2958 112.519V111.999H61.3609H61.3647Z" fill="#005D56"/>
<path d="M106.692 132.002H110.756V127.577H114.536V132.002H118.604H118.608V126.147H118.604V126.009H118.608V120H118.604H114.536V124.278H110.756V120H106.692V132.002Z" fill="#005D56"/>
<path d="M106.7 138.4V131.998H102.628V138.4C102.363 138.558 101.79 138.735 100.913 138.92C99.9828 139.132 99.41 139.321 99.1985 139.479V140H110.133V139.479C109.922 139.321 109.349 139.132 108.419 138.92C107.542 138.735 106.969 138.562 106.704 138.4H106.7ZM99.1985 112.519C99.41 112.681 99.9828 112.866 100.913 113.078C101.79 113.263 102.363 113.437 102.628 113.599V120H106.7V113.599C106.965 113.44 107.538 113.267 108.415 113.078C109.345 112.866 109.918 112.677 110.13 112.519V111.999H99.1946V112.519H99.1985Z" fill="#005D56"/>
<path d="M122.668 138.4V131.998H118.596V138.4C118.331 138.558 117.758 138.735 116.881 138.92C115.951 139.132 115.378 139.321 115.166 139.479V139.999H126.101V139.479C125.89 139.321 125.317 139.132 124.386 138.92C123.51 138.735 122.937 138.562 122.672 138.4H122.668Z" fill="#005D56"/>
<path d="M115.166 111.999V112.519C115.378 112.681 115.951 112.866 116.881 113.078C117.758 113.263 118.331 113.437 118.596 113.599V120H122.668V113.599C122.933 113.44 123.506 113.267 124.383 113.078C125.313 112.866 125.886 112.677 126.097 112.519V111.999H115.162H115.166Z" fill="#005D56"/>
<path d="M133.591 159.998H137.659V155.577H141.435V159.998H145.502H145.506V154.147H145.502V154.009H145.506V148H145.502H141.435V152.278H137.659V148H133.591V159.998Z" fill="#005D56"/>
<path d="M133.603 166.4V159.998H129.531V166.4C129.265 166.558 128.693 166.735 127.816 166.92C126.886 167.132 126.313 167.321 126.101 167.479V168H137.036V167.479C136.825 167.321 136.252 167.132 135.321 166.92C134.445 166.735 133.872 166.562 133.606 166.4H133.603ZM126.101 140.519C126.313 140.681 126.886 140.866 127.816 141.078C128.693 141.263 129.265 141.437 129.531 141.599V148H133.603V141.599C133.868 141.44 134.441 141.267 135.317 141.078C136.248 140.866 136.821 140.677 137.032 140.519V139.999H126.097V140.519H126.101Z" fill="#005D56"/>
<path d="M149.567 166.4V159.998H145.495V166.4C145.229 166.558 144.657 166.735 143.78 166.92C142.849 167.132 142.277 167.321 142.065 167.479V167.999H153V167.479C152.789 167.321 152.216 167.132 151.285 166.92C150.409 166.735 149.836 166.562 149.57 166.4H149.567Z" fill="#005D56"/>
<path d="M142.065 139.999V140.519C142.277 140.681 142.849 140.866 143.78 141.078C144.657 141.263 145.229 141.437 145.495 141.599V148H149.567V141.599C149.832 141.44 150.405 141.267 151.281 141.078C152.212 140.866 152.785 140.677 152.996 140.519V139.999H142.061H142.065Z" fill="#005D56"/>
<path d="M187.393 159.998H191.457V155.577H195.236V159.998H199.304H199.308V154.147H199.304V154.009H199.308V148H199.304H195.236V152.278H191.457V148H187.393V159.998Z" fill="#005D56"/>
<path d="M187.4 166.4V159.998H183.329V166.4C183.063 166.558 182.49 166.735 181.614 166.92C180.683 167.132 180.11 167.321 179.899 167.479V168H190.834V167.479C190.622 167.321 190.049 167.132 189.119 166.92C188.242 166.735 187.669 166.562 187.404 166.4H187.4ZM179.899 140.519C180.11 140.681 180.683 140.866 181.614 141.078C182.49 141.263 183.063 141.437 183.329 141.599V148H187.4V141.599C187.666 141.44 188.238 141.267 189.115 141.078C190.046 140.866 190.618 140.677 190.83 140.519V139.999H179.895V140.519H179.899Z" fill="#005D56"/>
<path d="M203.368 166.4V159.998H199.296V166.4C199.031 166.558 198.458 166.735 197.582 166.92C196.651 167.132 196.078 167.321 195.867 167.479V167.999H206.802V167.479C206.59 167.321 206.017 167.132 205.087 166.92C204.21 166.735 203.637 166.562 203.372 166.4H203.368Z" fill="#005D56"/>
<path d="M195.867 139.999V140.519C196.078 140.681 196.651 140.866 197.582 141.078C198.458 141.263 199.031 141.437 199.296 141.599V148H203.368V141.599C203.633 141.44 204.206 141.267 205.083 141.078C206.013 140.866 206.586 140.677 206.798 140.519V139.999H195.863H195.867Z" fill="#005D56"/>
<path d="M160.494 132.002H164.558V127.577H168.337V132.002H172.401H172.405V126.147H172.401V126.009H172.405V120H172.401H168.337V124.278H164.558V120H160.494V132.002Z" fill="#8DDBB0"/>
<path d="M160.501 138.4V131.998H156.43V138.4C156.164 138.558 155.591 138.735 154.715 138.92C153.784 139.132 153.211 139.321 153 139.479V140H163.935V139.479C163.723 139.321 163.151 139.132 162.22 138.92C161.343 138.735 160.771 138.562 160.505 138.4H160.501ZM153 112.519C153.211 112.681 153.784 112.866 154.715 113.078C155.591 113.263 156.164 113.437 156.43 113.599V120H160.501V113.599C160.767 113.44 161.34 113.267 162.216 113.078C163.147 112.866 163.72 112.677 163.931 112.519V111.999H152.996V112.519H153Z" fill="#005D56"/>
<path d="M176.469 138.4V131.998H172.397V138.4C172.132 138.558 171.559 138.735 170.683 138.92C169.752 139.132 169.179 139.321 168.968 139.479V139.999H179.903V139.479C179.691 139.321 179.118 139.132 178.188 138.92C177.311 138.735 176.738 138.562 176.473 138.4H176.469Z" fill="#005D56"/>
<path d="M168.968 111.999V112.519C169.179 112.681 169.752 112.866 170.683 113.078C171.559 113.263 172.132 113.437 172.397 113.599V120H176.469V113.599C176.734 113.44 177.307 113.267 178.184 113.078C179.114 112.866 179.687 112.677 179.899 112.519V111.999H168.964H168.968Z" fill="#005D56"/>
<path d="M214.291 132.002H218.355V127.577H222.135V132.002H226.203H226.207V126.147H226.203V126.009H226.207V120H226.203H222.135V124.278H218.355V120H214.291V132.002Z" fill="#005D56"/>
<path d="M214.303 138.4V131.998H210.231V138.4C209.966 138.558 209.393 138.735 208.516 138.92C207.586 139.132 207.013 139.321 206.802 139.479V140H217.736V139.479C217.525 139.321 216.952 139.132 216.022 138.92C215.145 138.735 214.572 138.562 214.307 138.4H214.303ZM206.798 112.519C207.009 112.681 207.582 112.866 208.513 113.078C209.389 113.263 209.962 113.437 210.227 113.599V120H214.299V113.599C214.564 113.44 215.137 113.267 216.014 113.078C216.944 112.866 217.517 112.677 217.729 112.519V111.999H206.794V112.519H206.798Z" fill="#005D56"/>
<path d="M230.267 138.4V131.998H226.195V138.4C225.93 138.558 225.357 138.735 224.48 138.92C223.55 139.132 222.977 139.321 222.766 139.479V139.999H233.7V139.479C233.489 139.321 232.916 139.132 231.986 138.92C231.109 138.735 230.536 138.562 230.271 138.4H230.267Z" fill="#005D56"/>
<path d="M222.766 111.999V112.519C222.977 112.681 223.55 112.866 224.48 113.078C225.357 113.263 225.93 113.437 226.195 113.599V120H230.267V113.599C230.532 113.44 231.105 113.267 231.982 113.078C232.912 112.866 233.485 112.677 233.697 112.519V111.999H222.762H222.766Z" fill="#005D56"/>
<path d="M241.194 159.998H245.258V155.577H249.034V159.998H253.102H253.105V154.147H253.102V154.009H253.105V148H253.102H249.034V152.278H245.258V148H241.194V159.998Z" fill="#005D56"/>
<path d="M241.202 166.4V159.998H237.13V166.4C236.865 166.558 236.292 166.735 235.415 166.92C234.485 167.132 233.912 167.321 233.7 167.479V168H244.635V167.479C244.424 167.321 243.851 167.132 242.92 166.92C242.044 166.735 241.471 166.562 241.206 166.4H241.202ZM233.7 140.519C233.912 140.681 234.485 140.866 235.415 141.078C236.292 141.263 236.865 141.437 237.13 141.599V148H241.202V141.599C241.467 141.44 242.04 141.267 242.917 141.078C243.847 140.866 244.42 140.677 244.631 140.519V139.999H233.697V140.519H233.7Z" fill="#005D56"/>
<path d="M257.166 166.4V159.998H253.094V166.4C252.829 166.558 252.256 166.735 251.379 166.92C250.449 167.132 249.876 167.321 249.664 167.479V167.999H260.599V167.479C260.388 167.321 259.815 167.132 258.884 166.92C258.008 166.735 257.435 166.562 257.17 166.4H257.166Z" fill="#005D56"/>
<path d="M249.664 139.999V140.519C249.876 140.681 250.449 140.866 251.379 141.078C252.256 141.263 252.829 141.437 253.094 141.599V148H257.166V141.599C257.431 141.44 258.004 141.267 258.881 141.078C259.811 140.866 260.384 140.677 260.595 140.519V139.999H249.661H249.664Z" fill="#005D56"/>
<path d="M294.992 159.998H299.056V155.577H302.835V159.998H306.903H306.907V154.147H306.903V154.009H306.907V148H306.903H302.835V152.278H299.056V148H294.992V159.998Z" fill="#005D56"/>
<path d="M294.999 166.4V159.998H290.928V166.4C290.662 166.558 290.09 166.735 289.213 166.92C288.282 167.132 287.71 167.321 287.498 167.479V168H298.433V167.479C298.221 167.321 297.649 167.132 296.718 166.92C295.842 166.735 295.269 166.562 295.003 166.4H294.999ZM287.498 140.519C287.71 140.681 288.282 140.866 289.213 141.078C290.09 141.263 290.662 141.437 290.928 141.599V148H294.999V141.599C295.265 141.44 295.838 141.267 296.714 141.078C297.645 140.866 298.218 140.677 298.429 140.519V139.999H287.494V140.519H287.498Z" fill="#005D56"/>
<path d="M310.967 166.4V159.998H306.896V166.4C306.63 166.558 306.057 166.735 305.181 166.92C304.25 167.132 303.677 167.321 303.466 167.479V167.999H314.401V167.479C314.189 167.321 313.616 167.132 312.686 166.92C311.809 166.735 311.236 166.562 310.971 166.4H310.967Z" fill="#005D56"/>
<path d="M303.466 139.999V140.519C303.677 140.681 304.25 140.866 305.181 141.078C306.057 141.263 306.63 141.437 306.896 141.599V148H310.967V141.599C311.233 141.44 311.805 141.267 312.682 141.078C313.613 140.866 314.185 140.677 314.397 140.519V139.999H303.462H303.466Z" fill="#005D56"/>
<path d="M268.093 132.002H272.157V127.577H275.936V132.002H280.004V126.147V126.009V120H275.936V124.278H272.157V120H268.093V132.002Z" fill="#8DDBB0"/>
<path d="M268.101 138.4V131.998H264.029V138.4C263.764 138.558 263.191 138.735 262.314 138.92C261.384 139.132 260.811 139.321 260.599 139.479V140H271.534V139.479C271.323 139.321 270.75 139.132 269.819 138.92C268.943 138.735 268.37 138.562 268.104 138.4H268.101ZM260.599 112.519C260.811 112.681 261.384 112.866 262.314 113.078C263.191 113.263 263.764 113.437 264.029 113.599V120H268.101V113.599C268.366 113.44 268.939 113.267 269.815 113.078C270.746 112.866 271.319 112.677 271.53 112.519V111.999H260.595V112.519H260.599Z" fill="#005D56"/>
<path d="M284.068 138.4V131.998H279.997V138.4C279.731 138.558 279.158 138.735 278.282 138.92C277.351 139.132 276.778 139.321 276.567 139.479V139.999H287.502V139.479C287.29 139.321 286.718 139.132 285.787 138.92C284.91 138.735 284.338 138.562 284.072 138.4H284.068Z" fill="#005D56"/>
<path d="M276.567 111.999V112.519C276.778 112.681 277.351 112.866 278.282 113.078C279.158 113.263 279.731 113.437 279.997 113.599V120H284.068V113.599C284.334 113.44 284.907 113.267 285.783 113.078C286.714 112.866 287.287 112.677 287.498 112.519V111.999H276.563H276.567Z" fill="#005D56"/>
<path d="M-0.907043 187.999H3.15701V183.578H6.93653V187.999H11.0044H11.0083V182.148H11.0044V182.01H11.0083V176.001H11.0044H6.93653V180.279H3.15701V176.001H-0.907043V187.999Z" fill="#8DDBB0"/>
<path d="M-0.899382 194.401V187.999H-4.97112V194.401C-5.23642 194.559 -5.8093 194.736 -6.68594 194.921C-7.6164 195.133 -8.18928 195.322 -8.40075 195.48V196.001H2.53411V195.48C2.32265 195.322 1.74975 195.133 0.819284 194.921C-0.0573502 194.736 -0.630236 194.563 -0.895533 194.401H-0.899382ZM-8.40075 168.52C-8.18928 168.682 -7.6164 168.867 -6.68594 169.079C-5.8093 169.264 -5.23642 169.438 -4.97112 169.599V176.001H-0.899382V169.599C-0.634084 169.441 -0.0611868 169.268 0.815448 169.079C1.74591 168.867 2.3188 168.678 2.53026 168.52V168H-8.4046V168.52H-8.40075Z" fill="#005D56"/>
<path d="M15.0685 194.401V187.999H10.9967V194.401C10.7314 194.559 10.1585 194.736 9.28189 194.921C8.35143 195.133 7.77855 195.322 7.56708 195.48V196H18.5019V195.48C18.2905 195.322 17.7176 195.133 16.7871 194.921C15.9105 194.736 15.3376 194.563 15.0723 194.401H15.0685Z" fill="#005D56"/>
<path d="M7.56708 168V168.52C7.77855 168.682 8.35144 168.867 9.2819 169.079C10.1585 169.264 10.7314 169.438 10.9967 169.599V176.001H15.0685V169.599C15.3338 169.441 15.9066 169.268 16.7833 169.079C17.7137 168.867 18.2866 168.678 18.4981 168.52V168H7.56323H7.56708Z" fill="#005D56"/>
<path d="M25.9918 215.999H30.0558V211.578H33.8353V215.999H37.9032H37.9071V210.148H37.9032V210.01H37.9071V204.001H37.9032H33.8353V208.279H30.0558V204.001H25.9918V215.999Z" fill="#005D56"/>
<path d="M26.0033 222.401V215.999H21.9315V222.401C21.6662 222.559 21.0934 222.736 20.2167 222.921C19.2863 223.133 18.7134 223.322 18.5019 223.48V224.001H29.4368V223.48C29.2253 223.322 28.6524 223.133 27.7219 222.921C26.8453 222.736 26.2724 222.563 26.0071 222.401H26.0033ZM18.4981 196.52C18.7095 196.682 19.2824 196.867 20.2129 197.079C21.0895 197.264 21.6624 197.438 21.9277 197.599V204.001H25.9994V197.599C26.2647 197.441 26.8376 197.268 27.7143 197.079C28.6447 196.867 29.2176 196.678 29.4291 196.52V196H18.4942V196.52H18.4981Z" fill="#005D56"/>
<path d="M41.9673 222.401V215.999H37.8955V222.401C37.6302 222.559 37.0573 222.736 36.1807 222.921C35.2502 223.133 34.6774 223.322 34.4659 223.48V224H45.4007V223.48C45.1893 223.322 44.6164 223.133 43.6859 222.921C42.8093 222.736 42.2364 222.563 41.9711 222.401H41.9673Z" fill="#005D56"/>
<path d="M34.4659 196V196.52C34.6774 196.682 35.2502 196.867 36.1807 197.079C37.0573 197.264 37.6302 197.438 37.8955 197.599V204.001H41.9673V197.599C42.2326 197.441 42.8054 197.268 43.6821 197.079C44.6125 196.867 45.1854 196.678 45.3969 196.52V196H34.462H34.4659Z" fill="#005D56"/>
<path d="M79.7933 215.999H83.8574V211.578H87.6369V215.999H91.7048V210.148V210.01V204.001H87.6369V208.279H83.8574V204.001H79.7933V215.999Z" fill="#005D56"/>
<path d="M79.801 222.401V215.999H75.7293V222.401C75.464 222.559 74.8911 222.736 74.0144 222.921C73.084 223.133 72.5111 223.322 72.2996 223.48V224.001H83.2345V223.48C83.023 223.322 82.4501 223.133 81.5197 222.921C80.643 222.736 80.0701 222.563 79.8048 222.401H79.801ZM72.2996 196.52C72.5111 196.682 73.084 196.867 74.0144 197.079C74.8911 197.264 75.464 197.438 75.7293 197.599V204.001H79.801V197.599C80.0663 197.441 80.6392 197.268 81.5158 197.079C82.4463 196.867 83.0192 196.678 83.2306 196.52V196H72.2958V196.52H72.2996Z" fill="#005D56"/>
<path d="M95.7688 222.401V215.999H91.6971V222.401C91.4318 222.559 90.8589 222.736 89.9823 222.921C89.0518 223.133 88.4789 223.322 88.2675 223.48V224H99.2023V223.48C98.9909 223.322 98.418 223.133 97.4875 222.921C96.6109 222.736 96.038 222.563 95.7727 222.401H95.7688Z" fill="#005D56"/>
<path d="M88.2675 196V196.52C88.4789 196.682 89.0518 196.867 89.9823 197.079C90.8589 197.264 91.4318 197.438 91.6971 197.599V204.001H95.7688V197.599C96.0341 197.441 96.607 197.268 97.4836 197.079C98.4141 196.867 98.987 196.678 99.1985 196.52V196H88.2636H88.2675Z" fill="#005D56"/>
<path d="M52.8945 187.999H56.9585V183.578H60.7342V187.999H64.8021H64.8059V182.148H64.8021V182.01H64.8059V176.001H64.8021H60.7342V180.279H56.9585V176.001H52.8945V187.999Z" fill="#005D56"/>
<path d="M52.9021 194.401V187.999H48.8304V194.401C48.5651 194.559 47.9922 194.736 47.1156 194.921C46.1851 195.133 45.6122 195.322 45.4008 195.48V196.001H56.3356V195.48C56.1242 195.322 55.5513 195.133 54.6208 194.921C53.7442 194.736 53.1713 194.563 52.906 194.401H52.9021ZM45.4008 168.52C45.6122 168.682 46.1851 168.867 47.1156 169.079C47.9922 169.264 48.5651 169.438 48.8304 169.599V176.001H52.9021V169.599C53.1674 169.441 53.7403 169.268 54.617 169.079C55.5474 168.867 56.1203 168.678 56.3318 168.52V168H45.3969V168.52H45.4008Z" fill="#005D56"/>
<path d="M68.8661 194.401V187.999H64.7944V194.401C64.5291 194.559 63.9562 194.736 63.0796 194.921C62.1491 195.133 61.5762 195.322 61.3647 195.48V196H72.2996V195.48C72.0881 195.322 71.5153 195.133 70.5848 194.921C69.7082 194.736 69.1353 194.563 68.87 194.401H68.8661Z" fill="#005D56"/>
<path d="M61.3647 168V168.52C61.5762 168.682 62.1491 168.867 63.0796 169.079C63.9562 169.264 64.5291 169.438 64.7944 169.599V176.001H68.8661V169.599C69.1314 169.441 69.7043 169.268 70.5809 169.079C71.5114 168.867 72.0843 168.678 72.2958 168.52V168H61.3609H61.3647Z" fill="#005D56"/>
<path d="M106.692 187.999H110.756V183.578H114.536V187.999H118.604H118.608V182.148H118.604V182.01H118.608V176.001H118.604H114.536V180.279H110.756V176.001H106.692V187.999Z" fill="#8DDBB0"/>
<path d="M106.7 194.401V187.999H102.628V194.401C102.363 194.559 101.79 194.736 100.913 194.921C99.9828 195.133 99.41 195.322 99.1985 195.48V196.001H110.133V195.48C109.922 195.322 109.349 195.133 108.419 194.921C107.542 194.736 106.969 194.563 106.704 194.401H106.7ZM99.1985 168.52C99.41 168.682 99.9828 168.867 100.913 169.079C101.79 169.264 102.363 169.438 102.628 169.599V176.001H106.7V169.599C106.965 169.441 107.538 169.268 108.415 169.079C109.345 168.867 109.918 168.678 110.13 168.52V168H99.1946V168.52H99.1985Z" fill="#005D56"/>
<path d="M122.668 194.401V187.999H118.596V194.401C118.331 194.559 117.758 194.736 116.881 194.921C115.951 195.133 115.378 195.322 115.166 195.48V196H126.101V195.48C125.89 195.322 125.317 195.133 124.386 194.921C123.51 194.736 122.937 194.563 122.672 194.401H122.668Z" fill="#005D56"/>
<path d="M115.166 168V168.52C115.378 168.682 115.951 168.867 116.881 169.079C117.758 169.264 118.331 169.438 118.596 169.599V176.001H122.668V169.599C122.933 169.441 123.506 169.268 124.383 169.079C125.313 168.867 125.886 168.678 126.097 168.52V168H115.162H115.166Z" fill="#005D56"/>
<path d="M133.591 215.999H137.659V211.578H141.435V215.999H145.502H145.506V210.148H145.502V210.01H145.506V204.001H145.502H141.435V208.279H137.659V204.001H133.591V215.999Z" fill="#005D56"/>
<path d="M133.603 222.401V215.999H129.531V222.401C129.265 222.559 128.693 222.736 127.816 222.921C126.886 223.133 126.313 223.322 126.101 223.48V224.001H137.036V223.48C136.825 223.322 136.252 223.133 135.321 222.921C134.445 222.736 133.872 222.563 133.606 222.401H133.603ZM126.101 196.52C126.313 196.682 126.886 196.867 127.816 197.079C128.693 197.264 129.265 197.438 129.531 197.599V204.001H133.603V197.599C133.868 197.441 134.441 197.268 135.317 197.079C136.248 196.867 136.821 196.678 137.032 196.52V196H126.097V196.52H126.101Z" fill="#005D56"/>
<path d="M149.567 222.401V215.999H145.495V222.401C145.229 222.559 144.657 222.736 143.78 222.921C142.849 223.133 142.277 223.322 142.065 223.48V224H153V223.48C152.789 223.322 152.216 223.133 151.285 222.921C150.409 222.736 149.836 222.563 149.57 222.401H149.567Z" fill="#005D56"/>
<path d="M142.065 196V196.52C142.277 196.682 142.849 196.867 143.78 197.079C144.657 197.264 145.229 197.438 145.495 197.599V204.001H149.567V197.599C149.832 197.441 150.405 197.268 151.281 197.079C152.212 196.867 152.785 196.678 152.996 196.52V196H142.061H142.065Z" fill="#005D56"/>
<path d="M187.393 215.999H191.457V211.578H195.236V215.999H199.304H199.308V210.148H199.304V210.01H199.308V204.001H199.304H195.236V208.279H191.457V204.001H187.393V215.999Z" fill="#005D56"/>
<path d="M187.4 222.401V215.999H183.329V222.401C183.063 222.559 182.49 222.736 181.614 222.921C180.683 223.133 180.11 223.322 179.899 223.48V224.001H190.834V223.48C190.622 223.322 190.049 223.133 189.119 222.921C188.242 222.736 187.669 222.563 187.404 222.401H187.4ZM179.899 196.52C180.11 196.682 180.683 196.867 181.614 197.079C182.49 197.264 183.063 197.438 183.329 197.599V204.001H187.4V197.599C187.666 197.441 188.238 197.268 189.115 197.079C190.046 196.867 190.618 196.678 190.83 196.52V196H179.895V196.52H179.899Z" fill="#005D56"/>
<path d="M203.368 222.401V215.999H199.296V222.401C199.031 222.559 198.458 222.736 197.582 222.921C196.651 223.133 196.078 223.322 195.867 223.48V224H206.802V223.48C206.59 223.322 206.017 223.133 205.087 222.921C204.21 222.736 203.637 222.563 203.372 222.401H203.368Z" fill="#005D56"/>
<path d="M195.867 196V196.52C196.078 196.682 196.651 196.867 197.582 197.079C198.458 197.264 199.031 197.438 199.296 197.599V204.001H203.368V197.599C203.633 197.441 204.206 197.268 205.083 197.079C206.013 196.867 206.586 196.678 206.798 196.52V196H195.863H195.867Z" fill="#005D56"/>
<path d="M160.494 187.999H164.558V183.578H168.337V187.999H172.401H172.405V182.148H172.401V182.01H172.405V176.001H172.401H168.337V180.279H164.558V176.001H160.494V187.999Z" fill="#005D56"/>
<path d="M160.501 194.401V187.999H156.43V194.401C156.164 194.559 155.591 194.736 154.715 194.921C153.784 195.133 153.211 195.322 153 195.48V196.001H163.935V195.48C163.723 195.322 163.151 195.133 162.22 194.921C161.343 194.736 160.771 194.563 160.505 194.401H160.501ZM153 168.52C153.211 168.682 153.784 168.867 154.715 169.079C155.591 169.264 156.164 169.438 156.43 169.599V176.001H160.501V169.599C160.767 169.441 161.34 169.268 162.216 169.079C163.147 168.867 163.72 168.678 163.931 168.52V168H152.996V168.52H153Z" fill="#005D56"/>
<path d="M176.469 194.401V187.999H172.397V194.401C172.132 194.559 171.559 194.736 170.683 194.921C169.752 195.133 169.179 195.322 168.968 195.48V196H179.903V195.48C179.691 195.322 179.118 195.133 178.188 194.921C177.311 194.736 176.738 194.563 176.473 194.401H176.469Z" fill="#005D56"/>
<path d="M168.968 168V168.52C169.179 168.682 169.752 168.867 170.683 169.079C171.559 169.264 172.132 169.438 172.397 169.599V176.001H176.469V169.599C176.734 169.441 177.307 169.268 178.184 169.079C179.114 168.867 179.687 168.678 179.899 168.52V168H168.964H168.968Z" fill="#005D56"/>
<path d="M214.291 187.999H218.355V183.578H222.135V187.999H226.203H226.207V182.148H226.203V182.01H226.207V176.001H226.203H222.135V180.279H218.355V176.001H214.291V187.999Z" fill="#8DDBB0"/>
<path d="M214.303 194.401V187.999H210.231V194.401C209.966 194.559 209.393 194.736 208.516 194.921C207.586 195.133 207.013 195.322 206.802 195.48V196.001H217.736V195.48C217.525 195.322 216.952 195.133 216.022 194.921C215.145 194.736 214.572 194.563 214.307 194.401H214.303ZM206.798 168.52C207.009 168.682 207.582 168.867 208.513 169.079C209.389 169.264 209.962 169.438 210.227 169.599V176.001H214.299V169.599C214.564 169.441 215.137 169.268 216.014 169.079C216.944 168.867 217.517 168.678 217.729 168.52V168H206.794V168.52H206.798Z" fill="#005D56"/>
<path d="M230.267 194.401V187.999H226.195V194.401C225.93 194.559 225.357 194.736 224.48 194.921C223.55 195.133 222.977 195.322 222.766 195.48V196H233.7V195.48C233.489 195.322 232.916 195.133 231.986 194.921C231.109 194.736 230.536 194.563 230.271 194.401H230.267Z" fill="#005D56"/>
<path d="M222.766 168V168.52C222.977 168.682 223.55 168.867 224.48 169.079C225.357 169.264 225.93 169.438 226.195 169.599V176.001H230.267V169.599C230.532 169.441 231.105 169.268 231.982 169.079C232.912 168.867 233.485 168.678 233.697 168.52V168H222.762H222.766Z" fill="#005D56"/>
<path d="M241.194 215.999H245.258V211.578H249.034V215.999H253.102H253.105V210.148H253.102V210.01H253.105V204.001H253.102H249.034V208.279H245.258V204.001H241.194V215.999Z" fill="#005D56"/>
<path d="M241.202 222.401V215.999H237.13V222.401C236.865 222.559 236.292 222.736 235.415 222.921C234.485 223.133 233.912 223.322 233.7 223.48V224.001H244.635V223.48C244.424 223.322 243.851 223.133 242.92 222.921C242.044 222.736 241.471 222.563 241.206 222.401H241.202ZM233.7 196.52C233.912 196.682 234.485 196.867 235.415 197.079C236.292 197.264 236.865 197.438 237.13 197.599V204.001H241.202V197.599C241.467 197.441 242.04 197.268 242.917 197.079C243.847 196.867 244.42 196.678 244.631 196.52V196H233.697V196.52H233.7Z" fill="#005D56"/>
<path d="M257.166 222.401V215.999H253.094V222.401C252.829 222.559 252.256 222.736 251.379 222.921C250.449 223.133 249.876 223.322 249.664 223.48V224H260.599V223.48C260.388 223.322 259.815 223.133 258.884 222.921C258.008 222.736 257.435 222.563 257.17 222.401H257.166Z" fill="#005D56"/>
<path d="M249.664 196V196.52C249.876 196.682 250.449 196.867 251.379 197.079C252.256 197.264 252.829 197.438 253.094 197.599V204.001H257.166V197.599C257.431 197.441 258.004 197.268 258.881 197.079C259.811 196.867 260.384 196.678 260.595 196.52V196H249.661H249.664Z" fill="#005D56"/>
<path d="M294.992 215.999H299.056V211.578H302.835V215.999H306.903H306.907V210.148H306.903V210.01H306.907V204.001H306.903H302.835V208.279H299.056V204.001H294.992V215.999Z" fill="#005D56"/>
<path d="M294.999 222.401V215.999H290.928V222.401C290.662 222.559 290.09 222.736 289.213 222.921C288.282 223.133 287.71 223.322 287.498 223.48V224.001H298.433V223.48C298.221 223.322 297.649 223.133 296.718 222.921C295.842 222.736 295.269 222.563 295.003 222.401H294.999ZM287.498 196.52C287.71 196.682 288.282 196.867 289.213 197.079C290.09 197.264 290.662 197.438 290.928 197.599V204.001H294.999V197.599C295.265 197.441 295.838 197.268 296.714 197.079C297.645 196.867 298.218 196.678 298.429 196.52V196H287.494V196.52H287.498Z" fill="#005D56"/>
<path d="M310.967 222.401V215.999H306.896V222.401C306.63 222.559 306.057 222.736 305.181 222.921C304.25 223.133 303.677 223.322 303.466 223.48V224H314.401V223.48C314.189 223.322 313.616 223.133 312.686 222.921C311.809 222.736 311.236 222.563 310.971 222.401H310.967Z" fill="#005D56"/>
<path d="M303.466 196V196.52C303.677 196.682 304.25 196.867 305.181 197.079C306.057 197.264 306.63 197.438 306.896 197.599V204.001H310.967V197.599C311.233 197.441 311.805 197.268 312.682 197.079C313.613 196.867 314.185 196.678 314.397 196.52V196H303.462H303.466Z" fill="#005D56"/>
<path d="M268.093 187.999H272.157V183.578H275.936V187.999H280.004V182.148V182.01V176.001H275.936V180.279H272.157V176.001H268.093V187.999Z" fill="#005D56"/>
<path d="M268.101 194.401V187.999H264.029V194.401C263.764 194.559 263.191 194.736 262.314 194.921C261.384 195.133 260.811 195.322 260.599 195.48V196.001H271.534V195.48C271.323 195.322 270.75 195.133 269.819 194.921C268.943 194.736 268.37 194.563 268.104 194.401H268.101ZM260.599 168.52C260.811 168.682 261.384 168.867 262.314 169.079C263.191 169.264 263.764 169.438 264.029 169.599V176.001H268.101V169.599C268.366 169.441 268.939 169.268 269.815 169.079C270.746 168.867 271.319 168.678 271.53 168.52V168H260.595V168.52H260.599Z" fill="#005D56"/>
<path d="M284.068 194.401V187.999H279.997V194.401C279.731 194.559 279.158 194.736 278.282 194.921C277.351 195.133 276.778 195.322 276.567 195.48V196H287.502V195.48C287.29 195.322 286.718 195.133 285.787 194.921C284.91 194.736 284.338 194.563 284.072 194.401H284.068Z" fill="#005D56"/>
<path d="M276.567 168V168.52C276.778 168.682 277.351 168.867 278.282 169.079C279.158 169.264 279.731 169.438 279.997 169.599V176.001H284.068V169.599C284.334 169.441 284.907 169.268 285.783 169.079C286.714 168.867 287.287 168.678 287.498 168.52V168H276.563H276.567Z" fill="#005D56"/>
<path d="M-0.907043 19.999H3.15701V15.5783H6.93653V19.999H11.0044H11.0083V14.1484H11.0044V14.0096H11.0083V8.00098H11.0044H6.93653V12.2791H3.15701V8.00098H-0.907043V19.999Z" fill="#005D56"/>
<path d="M-0.899382 26.4012V19.9994H-4.97112V26.4012C-5.23642 26.5592 -5.8093 26.7365 -6.68594 26.9215C-7.6164 27.1334 -8.18928 27.3223 -8.40075 27.4803V28.0006H2.53411V27.4803C2.32265 27.3223 1.74975 27.1334 0.819284 26.9215C-0.0573502 26.7365 -0.630236 26.563 -0.895533 26.4012H-0.899382ZM-8.40075 0.520315C-8.18928 0.68219 -7.6164 0.867191 -6.68594 1.07917C-5.8093 1.26417 -5.23642 1.43761 -4.97112 1.59949V8.00128H-0.899382V1.59949C-0.634084 1.44146 -0.0611868 1.26803 0.815448 1.07917C1.74591 0.867191 2.3188 0.678336 2.53026 0.520315V0H-8.4046V0.520315H-8.40075Z" fill="#005D56"/>
<path d="M15.0685 26.4008V19.999H10.9967V26.4008C10.7314 26.5588 10.1585 26.7361 9.28189 26.9211C8.35143 27.1331 7.77855 27.322 7.56708 27.48V28.0003H18.5019V27.48C18.2905 27.322 17.7176 27.1331 16.7871 26.9211C15.9105 26.7361 15.3376 26.5627 15.0723 26.4008H15.0685Z" fill="#005D56"/>
<path d="M7.56708 0V0.520315C7.77855 0.68219 8.35144 0.867191 9.2819 1.07917C10.1585 1.26417 10.7314 1.43761 10.9967 1.59949V8.00128H15.0685V1.59949C15.3338 1.44146 15.9066 1.26803 16.7833 1.07917C17.7137 0.867191 18.2866 0.678336 18.4981 0.520315V0H7.56323H7.56708Z" fill="#005D56"/>
<path d="M25.9918 47.999H30.0558V43.5782H33.8353V47.999H37.9032H37.9071V42.1445H37.9032V42.0096H37.9071V35.9971H37.9032H33.8353V40.2791H30.0558V35.9971H25.9918V47.999Z" fill="#005D56"/>
<path d="M26.0033 54.4012V47.9994H21.9315V54.4012C21.6662 54.5592 21.0934 54.7365 20.2167 54.9215C19.2863 55.1334 18.7134 55.3223 18.5019 55.4803V56.0006H29.4368V55.4803C29.2253 55.3223 28.6524 55.1334 27.7219 54.9215C26.8453 54.7365 26.2724 54.563 26.0071 54.4012H26.0033ZM18.4981 28.5203C18.7095 28.6822 19.2824 28.8672 20.2129 29.0792C21.0895 29.2642 21.6624 29.4376 21.9277 29.5995V36.0013H25.9994V29.5995C26.2647 29.4415 26.8376 29.268 27.7143 29.0792C28.6447 28.8672 29.2176 28.6783 29.4291 28.5203V28H18.4942V28.5203H18.4981Z" fill="#005D56"/>
<path d="M41.9673 54.4008V47.999H37.8955V54.4008C37.6302 54.5588 37.0573 54.7361 36.1807 54.9211C35.2502 55.1331 34.6774 55.322 34.4659 55.48V56.0003H45.4007V55.48C45.1893 55.322 44.6164 55.1331 43.6859 54.9211C42.8093 54.7361 42.2364 54.5627 41.9711 54.4008H41.9673Z" fill="#005D56"/>
<path d="M34.4659 28V28.5203C34.6774 28.6822 35.2502 28.8672 36.1807 29.0792C37.0573 29.2642 37.6302 29.4376 37.8955 29.5995V36.0013H41.9673V29.5995C42.2326 29.4415 42.8054 29.268 43.6821 29.0792C44.6125 28.8672 45.1854 28.6783 45.3969 28.5203V28H34.462H34.4659Z" fill="#005D56"/>
<path d="M79.7933 47.999H83.8574V43.5782H87.6369V47.999H91.7048V42.1445V42.0096V35.9971H87.6369V40.2791H83.8574V35.9971H79.7933V47.999Z" fill="#005D56"/>
<path d="M79.801 54.4012V47.9994H75.7293V54.4012C75.464 54.5592 74.8911 54.7365 74.0144 54.9215C73.084 55.1334 72.5111 55.3223 72.2996 55.4803V56.0006H83.2345V55.4803C83.023 55.3223 82.4501 55.1334 81.5197 54.9215C80.643 54.7365 80.0701 54.563 79.8048 54.4012H79.801ZM72.2996 28.5203C72.5111 28.6822 73.084 28.8672 74.0144 29.0792C74.8911 29.2642 75.464 29.4376 75.7293 29.5995V36.0013H79.801V29.5995C80.0663 29.4415 80.6392 29.268 81.5158 29.0792C82.4463 28.8672 83.0192 28.6783 83.2306 28.5203V28H72.2958V28.5203H72.2996Z" fill="#005D56"/>
<path d="M95.7688 54.4008V47.999H91.6971V54.4008C91.4318 54.5588 90.8589 54.7361 89.9823 54.9211C89.0518 55.1331 88.4789 55.322 88.2675 55.48V56.0003H99.2023V55.48C98.9909 55.322 98.418 55.1331 97.4875 54.9211C96.6109 54.7361 96.038 54.5627 95.7727 54.4008H95.7688Z" fill="#005D56"/>
<path d="M88.2675 28V28.5203C88.4789 28.6822 89.0518 28.8672 89.9823 29.0792C90.8589 29.2642 91.4318 29.4376 91.6971 29.5995V36.0013H95.7688V29.5995C96.0341 29.4415 96.607 29.268 97.4836 29.0792C98.4141 28.8672 98.987 28.6783 99.1985 28.5203V28H88.2636H88.2675Z" fill="#005D56"/>
<path d="M52.8945 19.999H56.9585V15.5783H60.7342V19.999H64.8021H64.8059V14.1484H64.8021V14.0096H64.8059V8.00098H64.8021H60.7342V12.2791H56.9585V8.00098H52.8945V19.999Z" fill="#8DDBB0"/>
<path d="M52.9021 26.4012V19.9994H48.8304V26.4012C48.5651 26.5592 47.9922 26.7365 47.1156 26.9215C46.1851 27.1334 45.6122 27.3223 45.4008 27.4803V28.0006H56.3356V27.4803C56.1242 27.3223 55.5513 27.1334 54.6208 26.9215C53.7442 26.7365 53.1713 26.563 52.906 26.4012H52.9021ZM45.4008 0.520315C45.6122 0.68219 46.1851 0.867191 47.1156 1.07917C47.9922 1.26417 48.5651 1.43761 48.8304 1.59949V8.00128H52.9021V1.59949C53.1674 1.44146 53.7403 1.26803 54.617 1.07917C55.5474 0.867191 56.1203 0.678336 56.3318 0.520315V0H45.3969V0.520315H45.4008Z" fill="#005D56"/>
<path d="M68.8661 26.4008V19.999H64.7944V26.4008C64.5291 26.5588 63.9562 26.7361 63.0796 26.9211C62.1491 27.1331 61.5762 27.322 61.3647 27.48V28.0003H72.2996V27.48C72.0881 27.322 71.5153 27.1331 70.5848 26.9211C69.7082 26.7361 69.1353 26.5627 68.87 26.4008H68.8661Z" fill="#005D56"/>
<path d="M61.3647 0V0.520315C61.5762 0.68219 62.1491 0.867191 63.0796 1.07917C63.9562 1.26417 64.5291 1.43761 64.7944 1.59949V8.00128H68.8661V1.59949C69.1314 1.44146 69.7043 1.26803 70.5809 1.07917C71.5114 0.867191 72.0843 0.678336 72.2958 0.520315V0H61.3609H61.3647Z" fill="#005D56"/>
<path d="M106.692 19.999H110.756V15.5783H114.536V19.999H118.604H118.608V14.1484H118.604V14.0096H118.608V8.00098H118.604H114.536V12.2791H110.756V8.00098H106.692V19.999Z" fill="#005D56"/>
<path d="M106.7 26.4012V19.9994H102.628V26.4012C102.363 26.5592 101.79 26.7365 100.913 26.9215C99.9828 27.1334 99.41 27.3223 99.1985 27.4803V28.0006H110.133V27.4803C109.922 27.3223 109.349 27.1334 108.419 26.9215C107.542 26.7365 106.969 26.563 106.704 26.4012H106.7ZM99.1985 0.520315C99.41 0.68219 99.9828 0.867191 100.913 1.07917C101.79 1.26417 102.363 1.43761 102.628 1.59949V8.00128H106.7V1.59949C106.965 1.44146 107.538 1.26803 108.415 1.07917C109.345 0.867191 109.918 0.678336 110.13 0.520315V0H99.1946V0.520315H99.1985Z" fill="#005D56"/>
<path d="M122.668 26.4008V19.999H118.596V26.4008C118.331 26.5588 117.758 26.7361 116.881 26.9211C115.951 27.1331 115.378 27.322 115.166 27.48V28.0003H126.101V27.48C125.89 27.322 125.317 27.1331 124.386 26.9211C123.51 26.7361 122.937 26.5627 122.672 26.4008H122.668Z" fill="#005D56"/>
<path d="M115.166 0V0.520315C115.378 0.68219 115.951 0.867191 116.881 1.07917C117.758 1.26417 118.331 1.43761 118.596 1.59949V8.00128H122.668V1.59949C122.933 1.44146 123.506 1.26803 124.383 1.07917C125.313 0.867191 125.886 0.678336 126.097 0.520315V0H115.162H115.166Z" fill="#005D56"/>
<path d="M133.591 47.999H137.659V43.5782H141.435V47.999H145.502H145.506V42.1445H145.502V42.0096H145.506V35.9971H145.502H141.435V40.2791H137.659V35.9971H133.591V47.999Z" fill="#005D56"/>
<path d="M133.603 54.4012V47.9994H129.531V54.4012C129.265 54.5592 128.693 54.7365 127.816 54.9215C126.886 55.1334 126.313 55.3223 126.101 55.4803V56.0006H137.036V55.4803C136.825 55.3223 136.252 55.1334 135.321 54.9215C134.445 54.7365 133.872 54.563 133.606 54.4012H133.603ZM126.101 28.5203C126.313 28.6822 126.886 28.8672 127.816 29.0792C128.693 29.2642 129.265 29.4376 129.531 29.5995V36.0013H133.603V29.5995C133.868 29.4415 134.441 29.268 135.317 29.0792C136.248 28.8672 136.821 28.6783 137.032 28.5203V28H126.097V28.5203H126.101Z" fill="#005D56"/>
<path d="M149.567 54.4008V47.999H145.495V54.4008C145.229 54.5588 144.657 54.7361 143.78 54.9211C142.849 55.1331 142.277 55.322 142.065 55.48V56.0003H153V55.48C152.789 55.322 152.216 55.1331 151.285 54.9211C150.409 54.7361 149.836 54.5627 149.57 54.4008H149.567Z" fill="#005D56"/>
<path d="M142.065 28V28.5203C142.277 28.6822 142.849 28.8672 143.78 29.0792C144.657 29.2642 145.229 29.4376 145.495 29.5995V36.0013H149.567V29.5995C149.832 29.4415 150.405 29.268 151.281 29.0792C152.212 28.8672 152.785 28.6783 152.996 28.5203V28H142.061H142.065Z" fill="#005D56"/>
<path d="M187.393 47.999H191.457V43.5782H195.236V47.999H199.304H199.308V42.1445H199.304V42.0096H199.308V35.9971H199.304H195.236V40.2791H191.457V35.9971H187.393V47.999Z" fill="#005D56"/>
<path d="M187.4 54.4012V47.9994H183.329V54.4012C183.063 54.5592 182.49 54.7365 181.614 54.9215C180.683 55.1334 180.11 55.3223 179.899 55.4803V56.0006H190.834V55.4803C190.622 55.3223 190.049 55.1334 189.119 54.9215C188.242 54.7365 187.669 54.563 187.404 54.4012H187.4ZM179.899 28.5203C180.11 28.6822 180.683 28.8672 181.614 29.0792C182.49 29.2642 183.063 29.4376 183.329 29.5995V36.0013H187.4V29.5995C187.666 29.4415 188.238 29.268 189.115 29.0792C190.046 28.8672 190.618 28.6783 190.83 28.5203V28H179.895V28.5203H179.899Z" fill="#005D56"/>
<path d="M203.368 54.4008V47.999H199.296V54.4008C199.031 54.5588 198.458 54.7361 197.582 54.9211C196.651 55.1331 196.078 55.322 195.867 55.48V56.0003H206.802V55.48C206.59 55.322 206.017 55.1331 205.087 54.9211C204.21 54.7361 203.637 54.5627 203.372 54.4008H203.368Z" fill="#005D56"/>
<path d="M195.867 28V28.5203C196.078 28.6822 196.651 28.8672 197.582 29.0792C198.458 29.2642 199.031 29.4376 199.296 29.5995V36.0013H203.368V29.5995C203.633 29.4415 204.206 29.268 205.083 29.0792C206.013 28.8672 206.586 28.6783 206.798 28.5203V28H195.863H195.867Z" fill="#005D56"/>
<path d="M160.494 19.999H164.558V15.5783H168.337V19.999H172.401H172.405V14.1484H172.401V14.0096H172.405V8.00098H172.401H168.337V12.2791H164.558V8.00098H160.494V19.999Z" fill="#8DDBB0"/>
<path d="M160.501 26.4012V19.9994H156.43V26.4012C156.164 26.5592 155.591 26.7365 154.715 26.9215C153.784 27.1334 153.211 27.3223 153 27.4803V28.0006H163.935V27.4803C163.723 27.3223 163.151 27.1334 162.22 26.9215C161.343 26.7365 160.771 26.563 160.505 26.4012H160.501ZM153 0.520315C153.211 0.68219 153.784 0.867191 154.715 1.07917C155.591 1.26417 156.164 1.43761 156.43 1.59949V8.00128H160.501V1.59949C160.767 1.44146 161.34 1.26803 162.216 1.07917C163.147 0.867191 163.72 0.678336 163.931 0.520315V0H152.996V0.520315H153Z" fill="#005D56"/>
<path d="M176.469 26.4008V19.999H172.397V26.4008C172.132 26.5588 171.559 26.7361 170.683 26.9211C169.752 27.1331 169.179 27.322 168.968 27.48V28.0003H179.903V27.48C179.691 27.322 179.118 27.1331 178.188 26.9211C177.311 26.7361 176.738 26.5627 176.473 26.4008H176.469Z" fill="#005D56"/>
<path d="M168.968 0V0.520315C169.179 0.68219 169.752 0.867191 170.683 1.07917C171.559 1.26417 172.132 1.43761 172.397 1.59949V8.00128H176.469V1.59949C176.734 1.44146 177.307 1.26803 178.184 1.07917C179.114 0.867191 179.687 0.678336 179.899 0.520315V0H168.964H168.968Z" fill="#005D56"/>
<path d="M214.291 19.999H218.355V15.5783H222.135V19.999H226.203H226.207V14.1484H226.203V14.0096H226.207V8.00098H226.203H222.135V12.2791H218.355V8.00098H214.291V19.999Z" fill="#005D56"/>
<path d="M214.303 26.4012V19.9994H210.231V26.4012C209.966 26.5592 209.393 26.7365 208.516 26.9215C207.586 27.1334 207.013 27.3223 206.802 27.4803V28.0006H217.736V27.4803C217.525 27.3223 216.952 27.1334 216.022 26.9215C215.145 26.7365 214.572 26.563 214.307 26.4012H214.303ZM206.798 0.520315C207.009 0.68219 207.582 0.867191 208.513 1.07917C209.389 1.26417 209.962 1.43761 210.227 1.59949V8.00128H214.299V1.59949C214.564 1.44146 215.137 1.26803 216.014 1.07917C216.944 0.867191 217.517 0.678336 217.729 0.520315V0H206.794V0.520315H206.798Z" fill="#005D56"/>
<path d="M230.267 26.4008V19.999H226.195V26.4008C225.93 26.5588 225.357 26.7361 224.48 26.9211C223.55 27.1331 222.977 27.322 222.766 27.48V28.0003H233.7V27.48C233.489 27.322 232.916 27.1331 231.986 26.9211C231.109 26.7361 230.536 26.5627 230.271 26.4008H230.267Z" fill="#005D56"/>
<path d="M222.766 0V0.520315C222.977 0.68219 223.55 0.867191 224.48 1.07917C225.357 1.26417 225.93 1.43761 226.195 1.59949V8.00128H230.267V1.59949C230.532 1.44146 231.105 1.26803 231.982 1.07917C232.912 0.867191 233.485 0.678336 233.697 0.520315V0H222.762H222.766Z" fill="#005D56"/>
<path d="M241.194 47.999H245.258V43.5782H249.034V47.999H253.102H253.105V42.1445H253.102V42.0096H253.105V35.9971H253.102H249.034V40.2791H245.258V35.9971H241.194V47.999Z" fill="#005D56"/>
<path d="M241.202 54.4012V47.9994H237.13V54.4012C236.865 54.5592 236.292 54.7365 235.415 54.9215C234.485 55.1334 233.912 55.3223 233.7 55.4803V56.0006H244.635V55.4803C244.424 55.3223 243.851 55.1334 242.92 54.9215C242.044 54.7365 241.471 54.563 241.206 54.4012H241.202ZM233.7 28.5203C233.912 28.6822 234.485 28.8672 235.415 29.0792C236.292 29.2642 236.865 29.4376 237.13 29.5995V36.0013H241.202V29.5995C241.467 29.4415 242.04 29.268 242.917 29.0792C243.847 28.8672 244.42 28.6783 244.631 28.5203V28H233.697V28.5203H233.7Z" fill="#005D56"/>
<path d="M257.166 54.4008V47.999H253.094V54.4008C252.829 54.5588 252.256 54.7361 251.379 54.9211C250.449 55.1331 249.876 55.322 249.664 55.48V56.0003H260.599V55.48C260.388 55.322 259.815 55.1331 258.884 54.9211C258.008 54.7361 257.435 54.5627 257.17 54.4008H257.166Z" fill="#005D56"/>
<path d="M249.664 28V28.5203C249.876 28.6822 250.449 28.8672 251.379 29.0792C252.256 29.2642 252.829 29.4376 253.094 29.5995V36.0013H257.166V29.5995C257.431 29.4415 258.004 29.268 258.881 29.0792C259.811 28.8672 260.384 28.6783 260.595 28.5203V28H249.661H249.664Z" fill="#005D56"/>
<path d="M294.992 47.999H299.056V43.5782H302.835V47.999H306.903H306.907V42.1445H306.903V42.0096H306.907V35.9971H306.903H302.835V40.2791H299.056V35.9971H294.992V47.999Z" fill="#005D56"/>
<path d="M294.999 54.4012V47.9994H290.928V54.4012C290.662 54.5592 290.09 54.7365 289.213 54.9215C288.282 55.1334 287.71 55.3223 287.498 55.4803V56.0006H298.433V55.4803C298.221 55.3223 297.649 55.1334 296.718 54.9215C295.842 54.7365 295.269 54.563 295.003 54.4012H294.999ZM287.498 28.5203C287.71 28.6822 288.282 28.8672 289.213 29.0792C290.09 29.2642 290.662 29.4376 290.928 29.5995V36.0013H294.999V29.5995C295.265 29.4415 295.838 29.268 296.714 29.0792C297.645 28.8672 298.218 28.6783 298.429 28.5203V28H287.494V28.5203H287.498Z" fill="#005D56"/>
<path d="M310.967 54.4008V47.999H306.896V54.4008C306.63 54.5588 306.057 54.7361 305.181 54.9211C304.25 55.1331 303.677 55.322 303.466 55.48V56.0003H314.401V55.48C314.189 55.322 313.616 55.1331 312.686 54.9211C311.809 54.7361 311.236 54.5627 310.971 54.4008H310.967Z" fill="#005D56"/>
<path d="M303.466 28V28.5203C303.677 28.6822 304.25 28.8672 305.181 29.0792C306.057 29.2642 306.63 29.4376 306.896 29.5995V36.0013H310.967V29.5995C311.233 29.4415 311.805 29.268 312.682 29.0792C313.613 28.8672 314.185 28.6783 314.397 28.5203V28H303.462H303.466Z" fill="#005D56"/>
<path d="M268.093 19.999H272.157V15.5783H275.936V19.999H280.004V14.1484V14.0096V8.00098H275.936V12.2791H272.157V8.00098H268.093V19.999Z" fill="#8DDBB0"/>
<path d="M268.101 26.4012V19.9994H264.029V26.4012C263.764 26.5592 263.191 26.7365 262.314 26.9215C261.384 27.1334 260.811 27.3223 260.599 27.4803V28.0006H271.534V27.4803C271.323 27.3223 270.75 27.1334 269.819 26.9215C268.943 26.7365 268.37 26.563 268.104 26.4012H268.101ZM260.599 0.520315C260.811 0.68219 261.384 0.867191 262.314 1.07917C263.191 1.26417 263.764 1.43761 264.029 1.59949V8.00128H268.101V1.59949C268.366 1.44146 268.939 1.26803 269.815 1.07917C270.746 0.867191 271.319 0.678336 271.53 0.520315V0H260.595V0.520315H260.599Z" fill="#005D56"/>
<path d="M284.068 26.4008V19.999H279.997V26.4008C279.731 26.5588 279.158 26.7361 278.282 26.9211C277.351 27.1331 276.778 27.322 276.567 27.48V28.0003H287.502V27.48C287.29 27.322 286.718 27.1331 285.787 26.9211C284.91 26.7361 284.338 26.5627 284.072 26.4008H284.068Z" fill="#005D56"/>
<path d="M276.567 0V0.520315C276.778 0.68219 277.351 0.867191 278.282 1.07917C279.158 1.26417 279.731 1.43761 279.997 1.59949V8.00128H284.068V1.59949C284.334 1.44146 284.907 1.26803 285.783 1.07917C286.714 0.867191 287.287 0.678336 287.498 0.520315V0H276.563H276.567Z" fill="#005D56"/>
<path d="M-0.907043 76H3.15701V71.5792H6.93653V76H11.0044H11.0083V70.1455H11.0044V70.0106H11.0083V63.998H11.0044H6.93653V68.28H3.15701V63.998H-0.907043V76Z" fill="#8DDBB0"/>
<path d="M-0.899382 82.3983V75.9965H-4.97112V82.3983C-5.23642 82.5563 -5.8093 82.7336 -6.68594 82.9186C-7.6164 83.1306 -8.18928 83.3194 -8.40075 83.4774V83.9978H2.53411V83.4774C2.32265 83.3194 1.74975 83.1306 0.819284 82.9186C-0.0573502 82.7336 -0.630236 82.5602 -0.895533 82.3983H-0.899382ZM-8.40075 56.5213C-8.18928 56.6832 -7.6164 56.8682 -6.68594 57.0801C-5.8093 57.2651 -5.23642 57.4386 -4.97112 57.6005V64.0023H-0.899382V57.6005C-0.634084 57.4424 -0.0611868 57.269 0.815448 57.0801C1.74591 56.8682 2.3188 56.6793 2.53026 56.5213V56.001H-8.4046V56.5213H-8.40075Z" fill="#005D56"/>
<path d="M15.0685 82.3979V75.9961H10.9967V82.3979C10.7314 82.5559 10.1585 82.7332 9.28189 82.9182C8.35143 83.1302 7.77855 83.319 7.56708 83.4771V83.9974H18.5019V83.4771C18.2905 83.319 17.7176 83.1302 16.7871 82.9182C15.9105 82.7332 15.3376 82.5598 15.0723 82.3979H15.0685Z" fill="#005D56"/>
<path d="M7.56708 56.001V56.5213C7.77855 56.6832 8.35144 56.8682 9.2819 57.0801C10.1585 57.2651 10.7314 57.4386 10.9967 57.6005V64.0023H15.0685V57.6005C15.3338 57.4424 15.9066 57.269 16.7833 57.0801C17.7137 56.8682 18.2866 56.6793 18.4981 56.5213V56.001H7.56323H7.56708Z" fill="#005D56"/>
<path d="M25.9918 104.001H30.0558V99.5802H33.8353V104.001H37.9032H37.9071V98.1464H37.9032V98.0077H37.9071V91.999H37.9032H33.8353V96.2772H30.0558V91.999H25.9918V104.001Z" fill="#005D56"/>
<path d="M26.0033 110.399V103.997H21.9315V110.399C21.6662 110.557 21.0934 110.735 20.2167 110.92C19.2863 111.132 18.7134 111.32 18.5019 111.478V111.999H29.4368V111.478C29.2253 111.32 28.6524 111.132 27.7219 110.92C26.8453 110.735 26.2724 110.561 26.0071 110.399H26.0033ZM18.4981 84.5184C18.7095 84.6802 19.2824 84.8652 20.2129 85.0772C21.0895 85.2622 21.6624 85.4357 21.9277 85.5975V91.9993H25.9994V85.5975C26.2647 85.4395 26.8376 85.2661 27.7143 85.0772C28.6447 84.8652 29.2176 84.6764 29.4291 84.5184V83.998H18.4942V84.5184H18.4981Z" fill="#005D56"/>
<path d="M41.9673 110.399V103.997H37.8955V110.399C37.6302 110.557 37.0573 110.734 36.1807 110.919C35.2502 111.131 34.6774 111.32 34.4659 111.478V111.998H45.4007V111.478C45.1893 111.32 44.6164 111.131 43.6859 110.919C42.8093 110.734 42.2364 110.561 41.9711 110.399H41.9673Z" fill="#005D56"/>
<path d="M34.4659 84.002V84.5223C34.6774 84.6841 35.2502 84.8691 36.1807 85.0811C37.0573 85.2661 37.6302 85.4396 37.8955 85.6014V92.0032H41.9673V85.6014C42.2326 85.4434 42.8054 85.27 43.6821 85.0811C44.6125 84.8691 45.1854 84.6803 45.3969 84.5223V84.002H34.462H34.4659Z" fill="#005D56"/>
<path d="M79.7933 104.001H83.8574V99.5802H87.6369V104.001H91.7048V98.1464V98.0077V91.999H87.6369V96.2772H83.8574V91.999H79.7933V104.001Z" fill="#005D56"/>
<path d="M79.801 110.399V103.997H75.7293V110.399C75.464 110.557 74.8911 110.735 74.0144 110.92C73.084 111.132 72.5111 111.32 72.2996 111.478V111.999H83.2345V111.478C83.023 111.32 82.4501 111.132 81.5197 110.92C80.643 110.735 80.0701 110.561 79.8048 110.399H79.801ZM72.2996 84.5184C72.5111 84.6802 73.084 84.8652 74.0144 85.0772C74.8911 85.2622 75.464 85.4357 75.7293 85.5975V91.9993H79.801V85.5975C80.0663 85.4395 80.6392 85.2661 81.5158 85.0772C82.4463 84.8652 83.0192 84.6764 83.2306 84.5184V83.998H72.2958V84.5184H72.2996Z" fill="#005D56"/>
<path d="M95.7688 110.399V103.997H91.6971V110.399C91.4318 110.557 90.8589 110.734 89.9823 110.919C89.0518 111.131 88.4789 111.32 88.2675 111.478V111.998H99.2023V111.478C98.9909 111.32 98.418 111.131 97.4875 110.919C96.6109 110.734 96.038 110.561 95.7727 110.399H95.7688Z" fill="#005D56"/>
<path d="M88.2675 84.002V84.5223C88.4789 84.6841 89.0518 84.8691 89.9823 85.0811C90.8589 85.2661 91.4318 85.4396 91.6971 85.6014V92.0032H95.7688V85.6014C96.0341 85.4434 96.607 85.27 97.4836 85.0811C98.4141 84.8691 98.987 84.6803 99.1985 84.5223V84.002H88.2636H88.2675Z" fill="#005D56"/>
<path d="M52.8945 76H56.9585V71.5792H60.7342V76H64.8021H64.8059V70.1455H64.8021V70.0106H64.8059V63.998H64.8021H60.7342V68.28H56.9585V63.998H52.8945V76Z" fill="#005D56"/>
<path d="M52.9021 82.3983V75.9965H48.8304V82.3983C48.5651 82.5563 47.9922 82.7336 47.1156 82.9186C46.1851 83.1306 45.6122 83.3194 45.4008 83.4774V83.9978H56.3356V83.4774C56.1242 83.3194 55.5513 83.1306 54.6208 82.9186C53.7442 82.7336 53.1713 82.5602 52.906 82.3983H52.9021ZM45.4008 56.5213C45.6122 56.6832 46.1851 56.8682 47.1156 57.0801C47.9922 57.2651 48.5651 57.4386 48.8304 57.6005V64.0023H52.9021V57.6005C53.1674 57.4424 53.7403 57.269 54.617 57.0801C55.5474 56.8682 56.1203 56.6793 56.3318 56.5213V56.001H45.3969V56.5213H45.4008Z" fill="#005D56"/>
<path d="M68.8661 82.3979V75.9961H64.7944V82.3979C64.5291 82.5559 63.9562 82.7332 63.0796 82.9182C62.1491 83.1302 61.5762 83.319 61.3647 83.4771V83.9974H72.2996V83.4771C72.0881 83.319 71.5153 83.1302 70.5848 82.9182C69.7082 82.7332 69.1353 82.5598 68.87 82.3979H68.8661Z" fill="#005D56"/>
<path d="M61.3647 56.001V56.5213C61.5762 56.6832 62.1491 56.8682 63.0796 57.0801C63.9562 57.2651 64.5291 57.4386 64.7944 57.6005V64.0023H68.8661V57.6005C69.1314 57.4424 69.7043 57.269 70.5809 57.0801C71.5114 56.8682 72.0843 56.6793 72.2958 56.5213V56.001H61.3609H61.3647Z" fill="#005D56"/>
<path d="M106.692 76H110.756V71.5792H114.536V76H118.604H118.608V70.1455H118.604V70.0106H118.608V63.998H118.604H114.536V68.28H110.756V63.998H106.692V76Z" fill="#8DDBB0"/>
<path d="M106.7 82.3983V75.9965H102.628V82.3983C102.363 82.5563 101.79 82.7336 100.913 82.9186C99.9828 83.1306 99.41 83.3194 99.1985 83.4774V83.9978H110.133V83.4774C109.922 83.3194 109.349 83.1306 108.419 82.9186C107.542 82.7336 106.969 82.5602 106.704 82.3983H106.7ZM99.1985 56.5213C99.41 56.6832 99.9828 56.8682 100.913 57.0801C101.79 57.2651 102.363 57.4386 102.628 57.6005V64.0023H106.7V57.6005C106.965 57.4424 107.538 57.269 108.415 57.0801C109.345 56.8682 109.918 56.6793 110.13 56.5213V56.001H99.1946V56.5213H99.1985Z" fill="#005D56"/>
<path d="M122.668 82.3979V75.9961H118.596V82.3979C118.331 82.5559 117.758 82.7332 116.881 82.9182C115.951 83.1302 115.378 83.319 115.166 83.4771V83.9974H126.101V83.4771C125.89 83.319 125.317 83.1302 124.386 82.9182C123.51 82.7332 122.937 82.5598 122.672 82.3979H122.668Z" fill="#005D56"/>
<path d="M115.166 56.001V56.5213C115.378 56.6832 115.951 56.8682 116.881 57.0801C117.758 57.2651 118.331 57.4386 118.596 57.6005V64.0023H122.668V57.6005C122.933 57.4424 123.506 57.269 124.383 57.0801C125.313 56.8682 125.886 56.6793 126.097 56.5213V56.001H115.162H115.166Z" fill="#005D56"/>
<path d="M133.591 104.001H137.659V99.5802H141.435V104.001H145.502H145.506V98.1464H145.502V98.0077H145.506V91.999H145.502H141.435V96.2772H137.659V91.999H133.591V104.001Z" fill="#005D56"/>
<path d="M133.603 110.399V103.997H129.531V110.399C129.265 110.557 128.693 110.735 127.816 110.92C126.886 111.132 126.313 111.32 126.101 111.478V111.999H137.036V111.478C136.825 111.32 136.252 111.132 135.321 110.92C134.445 110.735 133.872 110.561 133.606 110.399H133.603ZM126.101 84.5184C126.313 84.6802 126.886 84.8652 127.816 85.0772C128.693 85.2622 129.265 85.4357 129.531 85.5975V91.9993H133.603V85.5975C133.868 85.4395 134.441 85.2661 135.317 85.0772C136.248 84.8652 136.821 84.6764 137.032 84.5184V83.998H126.097V84.5184H126.101Z" fill="#005D56"/>
<path d="M149.567 110.399V103.997H145.495V110.399C145.229 110.557 144.657 110.734 143.78 110.919C142.849 111.131 142.277 111.32 142.065 111.478V111.998H153V111.478C152.789 111.32 152.216 111.131 151.285 110.919C150.409 110.734 149.836 110.561 149.57 110.399H149.567Z" fill="#005D56"/>
<path d="M142.065 84.002V84.5223C142.277 84.6841 142.849 84.8691 143.78 85.0811C144.657 85.2661 145.229 85.4396 145.495 85.6014V92.0032H149.567V85.6014C149.832 85.4434 150.405 85.27 151.281 85.0811C152.212 84.8691 152.785 84.6803 152.996 84.5223V84.002H142.061H142.065Z" fill="#005D56"/>
<path d="M187.393 104.001H191.457V99.5802H195.236V104.001H199.304H199.308V98.1464H199.304V98.0077H199.308V91.999H199.304H195.236V96.2772H191.457V91.999H187.393V104.001Z" fill="#005D56"/>
<path d="M187.4 110.399V103.997H183.329V110.399C183.063 110.557 182.49 110.735 181.614 110.92C180.683 111.132 180.11 111.32 179.899 111.478V111.999H190.834V111.478C190.622 111.32 190.049 111.132 189.119 110.92C188.242 110.735 187.669 110.561 187.404 110.399H187.4ZM179.899 84.5184C180.11 84.6802 180.683 84.8652 181.614 85.0772C182.49 85.2622 183.063 85.4357 183.329 85.5975V91.9993H187.4V85.5975C187.666 85.4395 188.238 85.2661 189.115 85.0772C190.046 84.8652 190.618 84.6764 190.83 84.5184V83.998H179.895V84.5184H179.899Z" fill="#005D56"/>
<path d="M203.368 110.399V103.997H199.296V110.399C199.031 110.557 198.458 110.734 197.582 110.919C196.651 111.131 196.078 111.32 195.867 111.478V111.998H206.802V111.478C206.59 111.32 206.017 111.131 205.087 110.919C204.21 110.734 203.637 110.561 203.372 110.399H203.368Z" fill="#005D56"/>
<path d="M195.867 84.002V84.5223C196.078 84.6841 196.651 84.8691 197.582 85.0811C198.458 85.2661 199.031 85.4396 199.296 85.6014V92.0032H203.368V85.6014C203.633 85.4434 204.206 85.27 205.083 85.0811C206.013 84.8691 206.586 84.6803 206.798 84.5223V84.002H195.863H195.867Z" fill="#005D56"/>
<path d="M160.494 76H164.558V71.5792H168.337V76H172.401H172.405V70.1455H172.401V70.0106H172.405V63.998H172.401H168.337V68.28H164.558V63.998H160.494V76Z" fill="#005D56"/>
<path d="M160.501 82.3983V75.9965H156.43V82.3983C156.164 82.5563 155.591 82.7336 154.715 82.9186C153.784 83.1306 153.211 83.3194 153 83.4774V83.9978H163.935V83.4774C163.723 83.3194 163.151 83.1306 162.22 82.9186C161.343 82.7336 160.771 82.5602 160.505 82.3983H160.501ZM153 56.5213C153.211 56.6832 153.784 56.8682 154.715 57.0801C155.591 57.2651 156.164 57.4386 156.43 57.6005V64.0023H160.501V57.6005C160.767 57.4424 161.34 57.269 162.216 57.0801C163.147 56.8682 163.72 56.6793 163.931 56.5213V56.001H152.996V56.5213H153Z" fill="#005D56"/>
<path d="M176.469 82.3979V75.9961H172.397V82.3979C172.132 82.5559 171.559 82.7332 170.683 82.9182C169.752 83.1302 169.179 83.319 168.968 83.4771V83.9974H179.903V83.4771C179.691 83.319 179.118 83.1302 178.188 82.9182C177.311 82.7332 176.738 82.5598 176.473 82.3979H176.469Z" fill="#005D56"/>
<path d="M168.968 56.001V56.5213C169.179 56.6832 169.752 56.8682 170.683 57.0801C171.559 57.2651 172.132 57.4386 172.397 57.6005V64.0023H176.469V57.6005C176.734 57.4424 177.307 57.269 178.184 57.0801C179.114 56.8682 179.687 56.6793 179.899 56.5213V56.001H168.964H168.968Z" fill="#005D56"/>
<path d="M214.291 76H218.355V71.5792H222.135V76H226.203H226.207V70.1455H226.203V70.0106H226.207V63.998H226.203H222.135V68.28H218.355V63.998H214.291V76Z" fill="#8DDBB0"/>
<path d="M214.303 82.3983V75.9965H210.231V82.3983C209.966 82.5563 209.393 82.7336 208.516 82.9186C207.586 83.1306 207.013 83.3194 206.802 83.4774V83.9978H217.736V83.4774C217.525 83.3194 216.952 83.1306 216.022 82.9186C215.145 82.7336 214.572 82.5602 214.307 82.3983H214.303ZM206.798 56.5213C207.009 56.6832 207.582 56.8682 208.513 57.0801C209.389 57.2651 209.962 57.4386 210.227 57.6005V64.0023H214.299V57.6005C214.564 57.4424 215.137 57.269 216.014 57.0801C216.944 56.8682 217.517 56.6793 217.729 56.5213V56.001H206.794V56.5213H206.798Z" fill="#005D56"/>
<path d="M230.267 82.3979V75.9961H226.195V82.3979C225.93 82.5559 225.357 82.7332 224.48 82.9182C223.55 83.1302 222.977 83.319 222.766 83.4771V83.9974H233.7V83.4771C233.489 83.319 232.916 83.1302 231.986 82.9182C231.109 82.7332 230.536 82.5598 230.271 82.3979H230.267Z" fill="#005D56"/>
<path d="M222.766 56.001V56.5213C222.977 56.6832 223.55 56.8682 224.48 57.0801C225.357 57.2651 225.93 57.4386 226.195 57.6005V64.0023H230.267V57.6005C230.532 57.4424 231.105 57.269 231.982 57.0801C232.912 56.8682 233.485 56.6793 233.697 56.5213V56.001H222.762H222.766Z" fill="#005D56"/>
<path d="M241.194 104.001H245.258V99.5802H249.034V104.001H253.102H253.105V98.1464H253.102V98.0077H253.105V91.999H253.102H249.034V96.2772H245.258V91.999H241.194V104.001Z" fill="#005D56"/>
<path d="M241.202 110.399V103.997H237.13V110.399C236.865 110.557 236.292 110.735 235.415 110.92C234.485 111.132 233.912 111.32 233.7 111.478V111.999H244.635V111.478C244.424 111.32 243.851 111.132 242.92 110.92C242.044 110.735 241.471 110.561 241.206 110.399H241.202ZM233.7 84.5184C233.912 84.6802 234.485 84.8652 235.415 85.0772C236.292 85.2622 236.865 85.4357 237.13 85.5975V91.9993H241.202V85.5975C241.467 85.4395 242.04 85.2661 242.917 85.0772C243.847 84.8652 244.42 84.6764 244.631 84.5184V83.998H233.697V84.5184H233.7Z" fill="#005D56"/>
<path d="M257.166 110.399V103.997H253.094V110.399C252.829 110.557 252.256 110.734 251.379 110.919C250.449 111.131 249.876 111.32 249.664 111.478V111.998H260.599V111.478C260.388 111.32 259.815 111.131 258.884 110.919C258.008 110.734 257.435 110.561 257.17 110.399H257.166Z" fill="#005D56"/>
<path d="M249.664 84.002V84.5223C249.876 84.6841 250.449 84.8691 251.379 85.0811C252.256 85.2661 252.829 85.4396 253.094 85.6014V92.0032H257.166V85.6014C257.431 85.4434 258.004 85.27 258.881 85.0811C259.811 84.8691 260.384 84.6803 260.595 84.5223V84.002H249.661H249.664Z" fill="#005D56"/>
<path d="M294.992 104.001H299.056V99.5802H302.835V104.001H306.903H306.907V98.1464H306.903V98.0077H306.907V91.999H306.903H302.835V96.2772H299.056V91.999H294.992V104.001Z" fill="#005D56"/>
<path d="M294.999 110.399V103.997H290.928V110.399C290.662 110.557 290.09 110.735 289.213 110.92C288.282 111.132 287.71 111.32 287.498 111.478V111.999H298.433V111.478C298.221 111.32 297.649 111.132 296.718 110.92C295.842 110.735 295.269 110.561 295.003 110.399H294.999ZM287.498 84.5184C287.71 84.6802 288.282 84.8652 289.213 85.0772C290.09 85.2622 290.662 85.4357 290.928 85.5975V91.9993H294.999V85.5975C295.265 85.4395 295.838 85.2661 296.714 85.0772C297.645 84.8652 298.218 84.6764 298.429 84.5184V83.998H287.494V84.5184H287.498Z" fill="#005D56"/>
<path d="M310.967 110.399V103.997H306.896V110.399C306.63 110.557 306.057 110.734 305.181 110.919C304.25 111.131 303.677 111.32 303.466 111.478V111.998H314.401V111.478C314.189 111.32 313.616 111.131 312.686 110.919C311.809 110.734 311.236 110.561 310.971 110.399H310.967Z" fill="#005D56"/>
<path d="M303.466 84.002V84.5223C303.677 84.6841 304.25 84.8691 305.181 85.0811C306.057 85.2661 306.63 85.4396 306.896 85.6014V92.0032H310.967V85.6014C311.233 85.4434 311.805 85.27 312.682 85.0811C313.613 84.8691 314.185 84.6803 314.397 84.5223V84.002H303.462H303.466Z" fill="#005D56"/>
<path d="M268.093 76H272.157V71.5792H275.936V76H280.004V70.1455V70.0106V63.998H275.936V68.28H272.157V63.998H268.093V76Z" fill="#005D56"/>
<path d="M268.101 82.3983V75.9965H264.029V82.3983C263.764 82.5563 263.191 82.7336 262.314 82.9186C261.384 83.1306 260.811 83.3194 260.599 83.4774V83.9978H271.534V83.4774C271.323 83.3194 270.75 83.1306 269.819 82.9186C268.943 82.7336 268.37 82.5602 268.104 82.3983H268.101ZM260.599 56.5213C260.811 56.6832 261.384 56.8682 262.314 57.0801C263.191 57.2651 263.764 57.4386 264.029 57.6005V64.0023H268.101V57.6005C268.366 57.4424 268.939 57.269 269.815 57.0801C270.746 56.8682 271.319 56.6793 271.53 56.5213V56.001H260.595V56.5213H260.599Z" fill="#005D56"/>
<path d="M284.068 82.3979V75.9961H279.997V82.3979C279.731 82.5559 279.158 82.7332 278.282 82.9182C277.351 83.1302 276.778 83.319 276.567 83.4771V83.9974H287.502V83.4771C287.29 83.319 286.718 83.1302 285.787 82.9182C284.91 82.7332 284.338 82.5598 284.072 82.3979H284.068Z" fill="#005D56"/>
<path d="M276.567 56.001V56.5213C276.778 56.6832 277.351 56.8682 278.282 57.0801C279.158 57.2651 279.731 57.4386 279.997 57.6005V64.0023H284.068V57.6005C284.334 57.4424 284.907 57.269 285.783 57.0801C286.714 56.8682 287.287 56.6793 287.498 56.5213V56.001H276.563H276.567Z" fill="#005D56"/>
<path d="M-0.907043 244H3.15701V239.579H6.93653V244H11.0044H11.0083V238.145H11.0044V238.011H11.0083V231.998H11.0044H6.93653V236.28H3.15701V231.998H-0.907043V244Z" fill="#005D56"/>
<path d="M-0.899382 250.398V243.996H-4.97112V250.398C-5.23642 250.556 -5.8093 250.734 -6.68594 250.919C-7.6164 251.131 -8.18928 251.319 -8.40075 251.477V251.998H2.53411V251.477C2.32265 251.319 1.74975 251.131 0.819284 250.919C-0.0573502 250.734 -0.630236 250.56 -0.895533 250.398H-0.899382ZM-8.40075 224.521C-8.18928 224.683 -7.6164 224.868 -6.68594 225.08C-5.8093 225.265 -5.23642 225.439 -4.97112 225.6V232.002H-0.899382V225.6C-0.634084 225.442 -0.0611868 225.269 0.815448 225.08C1.74591 224.868 2.3188 224.679 2.53026 224.521V224.001H-8.4046V224.521H-8.40075Z" fill="#005D56"/>
<path d="M15.0685 250.398V243.996H10.9967V250.398C10.7314 250.556 10.1585 250.733 9.28189 250.918C8.35143 251.13 7.77855 251.319 7.56708 251.477V251.997H18.5019V251.477C18.2905 251.319 17.7176 251.13 16.7871 250.918C15.9105 250.733 15.3376 250.56 15.0723 250.398H15.0685Z" fill="#005D56"/>
<path d="M7.56708 224.001V224.521C7.77855 224.683 8.35144 224.868 9.2819 225.08C10.1585 225.265 10.7314 225.439 10.9967 225.6V232.002H15.0685V225.6C15.3338 225.442 15.9066 225.269 16.7833 225.08C17.7137 224.868 18.2866 224.679 18.4981 224.521V224.001H7.56323H7.56708Z" fill="#005D56"/>
<path d="M25.9918 272.001H30.0558V267.58H33.8353V272.001H37.9032H37.9071V266.146H37.9032V266.008H37.9071V259.999H37.9032H33.8353V264.281H30.0558V259.999H25.9918V272.001Z" fill="#005D56"/>
<path d="M26.0033 278.399V271.997H21.9315V278.399C21.6662 278.557 21.0934 278.735 20.2167 278.92C19.2863 279.131 18.7134 279.32 18.5019 279.478V279.999H29.4368V279.478C29.2253 279.32 28.6524 279.131 27.7219 278.92C26.8453 278.735 26.2724 278.561 26.0071 278.399H26.0033ZM18.4981 252.518C18.7095 252.68 19.2824 252.865 20.2129 253.077C21.0895 253.262 21.6624 253.436 21.9277 253.598V259.999H25.9994V253.598C26.2647 253.439 26.8376 253.266 27.7143 253.077C28.6447 252.865 29.2176 252.676 29.4291 252.518V251.998H18.4942V252.518H18.4981Z" fill="#005D56"/>
<path d="M41.9673 278.399V271.997H37.8955V278.399C37.6302 278.557 37.0573 278.734 36.1807 278.919C35.2502 279.131 34.6774 279.32 34.4659 279.478V279.998H45.4007V279.478C45.1893 279.32 44.6164 279.131 43.6859 278.919C42.8093 278.734 42.2364 278.561 41.9711 278.399H41.9673Z" fill="#005D56"/>
<path d="M34.4659 252.002V252.522C34.6774 252.684 35.2502 252.869 36.1807 253.081C37.0573 253.266 37.6302 253.44 37.8955 253.601V260.003H41.9673V253.601C42.2326 253.443 42.8054 253.27 43.6821 253.081C44.6125 252.869 45.1854 252.68 45.3969 252.522V252.002H34.462H34.4659Z" fill="#005D56"/>
<path d="M79.7933 272.001H83.8574V267.58H87.6369V272.001H91.7048V266.146V266.008V259.999H87.6369V264.281H83.8574V259.999H79.7933V272.001Z" fill="#005D56"/>
<path d="M79.801 278.399V271.997H75.7293V278.399C75.464 278.557 74.8911 278.735 74.0144 278.92C73.084 279.131 72.5111 279.32 72.2996 279.478V279.999H83.2345V279.478C83.023 279.32 82.4501 279.131 81.5197 278.92C80.643 278.735 80.0701 278.561 79.8048 278.399H79.801ZM72.2996 252.518C72.5111 252.68 73.084 252.865 74.0144 253.077C74.8911 253.262 75.464 253.436 75.7293 253.598V259.999H79.801V253.598C80.0663 253.439 80.6392 253.266 81.5158 253.077C82.4463 252.865 83.0192 252.676 83.2306 252.518V251.998H72.2958V252.518H72.2996Z" fill="#005D56"/>
<path d="M95.7688 278.399V271.997H91.6971V278.399C91.4318 278.557 90.8589 278.734 89.9823 278.919C89.0518 279.131 88.4789 279.32 88.2675 279.478V279.998H99.2023V279.478C98.9909 279.32 98.418 279.131 97.4875 278.919C96.6109 278.734 96.038 278.561 95.7727 278.399H95.7688Z" fill="#005D56"/>
<path d="M88.2675 252.002V252.522C88.4789 252.684 89.0518 252.869 89.9823 253.081C90.8589 253.266 91.4318 253.44 91.6971 253.601V260.003H95.7688V253.601C96.0341 253.443 96.607 253.27 97.4836 253.081C98.4141 252.869 98.987 252.68 99.1985 252.522V252.002H88.2636H88.2675Z" fill="#005D56"/>
<path d="M52.8945 244H56.9585V239.579H60.7342V244H64.8021H64.8059V238.145H64.8021V238.011H64.8059V231.998H64.8021H60.7342V236.28H56.9585V231.998H52.8945V244Z" fill="#8DDBB0"/>
<path d="M52.9021 250.398V243.996H48.8304V250.398C48.5651 250.556 47.9922 250.734 47.1156 250.919C46.1851 251.131 45.6122 251.319 45.4008 251.477V251.998H56.3356V251.477C56.1242 251.319 55.5513 251.131 54.6208 250.919C53.7442 250.734 53.1713 250.56 52.906 250.398H52.9021ZM45.4008 224.521C45.6122 224.683 46.1851 224.868 47.1156 225.08C47.9922 225.265 48.5651 225.439 48.8304 225.6V232.002H52.9021V225.6C53.1674 225.442 53.7403 225.269 54.617 225.08C55.5474 224.868 56.1203 224.679 56.3318 224.521V224.001H45.3969V224.521H45.4008Z" fill="#005D56"/>
<path d="M68.8661 250.398V243.996H64.7944V250.398C64.5291 250.556 63.9562 250.733 63.0796 250.918C62.1491 251.13 61.5762 251.319 61.3647 251.477V251.997H72.2996V251.477C72.0881 251.319 71.5153 251.13 70.5848 250.918C69.7082 250.733 69.1353 250.56 68.87 250.398H68.8661Z" fill="#005D56"/>
<path d="M61.3647 224.001V224.521C61.5762 224.683 62.1491 224.868 63.0796 225.08C63.9562 225.265 64.5291 225.439 64.7944 225.6V232.002H68.8661V225.6C69.1314 225.442 69.7043 225.269 70.5809 225.08C71.5114 224.868 72.0843 224.679 72.2958 224.521V224.001H61.3609H61.3647Z" fill="#005D56"/>
<path d="M106.692 244H110.756V239.579H114.536V244H118.604H118.608V238.145H118.604V238.011H118.608V231.998H118.604H114.536V236.28H110.756V231.998H106.692V244Z" fill="#005D56"/>
<path d="M106.7 250.398V243.996H102.628V250.398C102.363 250.556 101.79 250.734 100.913 250.919C99.9828 251.131 99.41 251.319 99.1985 251.477V251.998H110.133V251.477C109.922 251.319 109.349 251.131 108.419 250.919C107.542 250.734 106.969 250.56 106.704 250.398H106.7ZM99.1985 224.521C99.41 224.683 99.9828 224.868 100.913 225.08C101.79 225.265 102.363 225.439 102.628 225.6V232.002H106.7V225.6C106.965 225.442 107.538 225.269 108.415 225.08C109.345 224.868 109.918 224.679 110.13 224.521V224.001H99.1946V224.521H99.1985Z" fill="#005D56"/>
<path d="M122.668 250.398V243.996H118.596V250.398C118.331 250.556 117.758 250.733 116.881 250.918C115.951 251.13 115.378 251.319 115.166 251.477V251.997H126.101V251.477C125.89 251.319 125.317 251.13 124.386 250.918C123.51 250.733 122.937 250.56 122.672 250.398H122.668Z" fill="#005D56"/>
<path d="M115.166 224.001V224.521C115.378 224.683 115.951 224.868 116.881 225.08C117.758 225.265 118.331 225.439 118.596 225.6V232.002H122.668V225.6C122.933 225.442 123.506 225.269 124.383 225.08C125.313 224.868 125.886 224.679 126.097 224.521V224.001H115.162H115.166Z" fill="#005D56"/>
<path d="M133.591 272.001H137.659V267.58H141.435V272.001H145.502H145.506V266.146H145.502V266.008H145.506V259.999H145.502H141.435V264.281H137.659V259.999H133.591V272.001Z" fill="#005D56"/>
<path d="M133.603 278.399V271.997H129.531V278.399C129.265 278.557 128.693 278.735 127.816 278.92C126.886 279.131 126.313 279.32 126.101 279.478V279.999H137.036V279.478C136.825 279.32 136.252 279.131 135.321 278.92C134.445 278.735 133.872 278.561 133.606 278.399H133.603ZM126.101 252.518C126.313 252.68 126.886 252.865 127.816 253.077C128.693 253.262 129.265 253.436 129.531 253.598V259.999H133.603V253.598C133.868 253.439 134.441 253.266 135.317 253.077C136.248 252.865 136.821 252.676 137.032 252.518V251.998H126.097V252.518H126.101Z" fill="#005D56"/>
<path d="M149.567 278.399V271.997H145.495V278.399C145.229 278.557 144.657 278.734 143.78 278.919C142.849 279.131 142.277 279.32 142.065 279.478V279.998H153V279.478C152.789 279.32 152.216 279.131 151.285 278.919C150.409 278.734 149.836 278.561 149.57 278.399H149.567Z" fill="#005D56"/>
<path d="M142.065 252.002V252.522C142.277 252.684 142.849 252.869 143.78 253.081C144.657 253.266 145.229 253.44 145.495 253.601V260.003H149.567V253.601C149.832 253.443 150.405 253.27 151.281 253.081C152.212 252.869 152.785 252.68 152.996 252.522V252.002H142.061H142.065Z" fill="#005D56"/>
<path d="M187.393 272.001H191.457V267.58H195.236V272.001H199.304H199.308V266.146H199.304V266.008H199.308V259.999H199.304H195.236V264.281H191.457V259.999H187.393V272.001Z" fill="#005D56"/>
<path d="M187.4 278.399V271.997H183.329V278.399C183.063 278.557 182.49 278.735 181.614 278.92C180.683 279.131 180.11 279.32 179.899 279.478V279.999H190.834V279.478C190.622 279.32 190.049 279.131 189.119 278.92C188.242 278.735 187.669 278.561 187.404 278.399H187.4ZM179.899 252.518C180.11 252.68 180.683 252.865 181.614 253.077C182.49 253.262 183.063 253.436 183.329 253.598V259.999H187.4V253.598C187.666 253.439 188.238 253.266 189.115 253.077C190.046 252.865 190.618 252.676 190.83 252.518V251.998H179.895V252.518H179.899Z" fill="#005D56"/>
<path d="M203.368 278.399V271.997H199.296V278.399C199.031 278.557 198.458 278.734 197.582 278.919C196.651 279.131 196.078 279.32 195.867 279.478V279.998H206.802V279.478C206.59 279.32 206.017 279.131 205.087 278.919C204.21 278.734 203.637 278.561 203.372 278.399H203.368Z" fill="#005D56"/>
<path d="M195.867 252.002V252.522C196.078 252.684 196.651 252.869 197.582 253.081C198.458 253.266 199.031 253.44 199.296 253.601V260.003H203.368V253.601C203.633 253.443 204.206 253.27 205.083 253.081C206.013 252.869 206.586 252.68 206.798 252.522V252.002H195.863H195.867Z" fill="#005D56"/>
<path d="M160.494 244H164.558V239.579H168.337V244H172.401H172.405V238.145H172.401V238.011H172.405V231.998H172.401H168.337V236.28H164.558V231.998H160.494V244Z" fill="#8DDBB0"/>
<path d="M160.501 250.398V243.996H156.43V250.398C156.164 250.556 155.591 250.734 154.715 250.919C153.784 251.131 153.211 251.319 153 251.477V251.998H163.935V251.477C163.723 251.319 163.151 251.131 162.22 250.919C161.343 250.734 160.771 250.56 160.505 250.398H160.501ZM153 224.521C153.211 224.683 153.784 224.868 154.715 225.08C155.591 225.265 156.164 225.439 156.43 225.6V232.002H160.501V225.6C160.767 225.442 161.34 225.269 162.216 225.08C163.147 224.868 163.72 224.679 163.931 224.521V224.001H152.996V224.521H153Z" fill="#005D56"/>
<path d="M176.469 250.398V243.996H172.397V250.398C172.132 250.556 171.559 250.733 170.683 250.918C169.752 251.13 169.179 251.319 168.968 251.477V251.997H179.903V251.477C179.691 251.319 179.118 251.13 178.188 250.918C177.311 250.733 176.738 250.56 176.473 250.398H176.469Z" fill="#005D56"/>
<path d="M168.968 224.001V224.521C169.179 224.683 169.752 224.868 170.683 225.08C171.559 225.265 172.132 225.439 172.397 225.6V232.002H176.469V225.6C176.734 225.442 177.307 225.269 178.184 225.08C179.114 224.868 179.687 224.679 179.899 224.521V224.001H168.964H168.968Z" fill="#005D56"/>
<path d="M214.291 244H218.355V239.579H222.135V244H226.203H226.207V238.145H226.203V238.011H226.207V231.998H226.203H222.135V236.28H218.355V231.998H214.291V244Z" fill="#005D56"/>
<path d="M214.303 250.398V243.996H210.231V250.398C209.966 250.556 209.393 250.734 208.516 250.919C207.586 251.131 207.013 251.319 206.802 251.477V251.998H217.736V251.477C217.525 251.319 216.952 251.131 216.022 250.919C215.145 250.734 214.572 250.56 214.307 250.398H214.303ZM206.798 224.521C207.009 224.683 207.582 224.868 208.513 225.08C209.389 225.265 209.962 225.439 210.227 225.6V232.002H214.299V225.6C214.564 225.442 215.137 225.269 216.014 225.08C216.944 224.868 217.517 224.679 217.729 224.521V224.001H206.794V224.521H206.798Z" fill="#005D56"/>
<path d="M230.267 250.398V243.996H226.195V250.398C225.93 250.556 225.357 250.733 224.48 250.918C223.55 251.13 222.977 251.319 222.766 251.477V251.997H233.7V251.477C233.489 251.319 232.916 251.13 231.986 250.918C231.109 250.733 230.536 250.56 230.271 250.398H230.267Z" fill="#005D56"/>
<path d="M222.766 224.001V224.521C222.977 224.683 223.55 224.868 224.48 225.08C225.357 225.265 225.93 225.439 226.195 225.6V232.002H230.267V225.6C230.532 225.442 231.105 225.269 231.982 225.08C232.912 224.868 233.485 224.679 233.697 224.521V224.001H222.762H222.766Z" fill="#005D56"/>
<path d="M241.194 272.001H245.258V267.58H249.034V272.001H253.102H253.105V266.146H253.102V266.008H253.105V259.999H253.102H249.034V264.281H245.258V259.999H241.194V272.001Z" fill="#005D56"/>
<path d="M241.202 278.399V271.997H237.13V278.399C236.865 278.557 236.292 278.735 235.415 278.92C234.485 279.131 233.912 279.32 233.7 279.478V279.999H244.635V279.478C244.424 279.32 243.851 279.131 242.92 278.92C242.044 278.735 241.471 278.561 241.206 278.399H241.202ZM233.7 252.518C233.912 252.68 234.485 252.865 235.415 253.077C236.292 253.262 236.865 253.436 237.13 253.598V259.999H241.202V253.598C241.467 253.439 242.04 253.266 242.917 253.077C243.847 252.865 244.42 252.676 244.631 252.518V251.998H233.697V252.518H233.7Z" fill="#005D56"/>
<path d="M257.166 278.399V271.997H253.094V278.399C252.829 278.557 252.256 278.734 251.379 278.919C250.449 279.131 249.876 279.32 249.664 279.478V279.998H260.599V279.478C260.388 279.32 259.815 279.131 258.884 278.919C258.008 278.734 257.435 278.561 257.17 278.399H257.166Z" fill="#005D56"/>
<path d="M249.664 252.002V252.522C249.876 252.684 250.449 252.869 251.379 253.081C252.256 253.266 252.829 253.44 253.094 253.601V260.003H257.166V253.601C257.431 253.443 258.004 253.27 258.881 253.081C259.811 252.869 260.384 252.68 260.595 252.522V252.002H249.661H249.664Z" fill="#005D56"/>
<path d="M294.992 272.001H299.056V267.58H302.835V272.001H306.903H306.907V266.146H306.903V266.008H306.907V259.999H306.903H302.835V264.281H299.056V259.999H294.992V272.001Z" fill="#005D56"/>
<path d="M294.999 278.399V271.997H290.928V278.399C290.662 278.557 290.09 278.735 289.213 278.92C288.282 279.131 287.71 279.32 287.498 279.478V279.999H298.433V279.478C298.221 279.32 297.649 279.131 296.718 278.92C295.842 278.735 295.269 278.561 295.003 278.399H294.999ZM287.498 252.518C287.71 252.68 288.282 252.865 289.213 253.077C290.09 253.262 290.662 253.436 290.928 253.598V259.999H294.999V253.598C295.265 253.439 295.838 253.266 296.714 253.077C297.645 252.865 298.218 252.676 298.429 252.518V251.998H287.494V252.518H287.498Z" fill="#005D56"/>
<path d="M310.967 278.399V271.997H306.896V278.399C306.63 278.557 306.057 278.734 305.181 278.919C304.25 279.131 303.677 279.32 303.466 279.478V279.998H314.401V279.478C314.189 279.32 313.616 279.131 312.686 278.919C311.809 278.734 311.236 278.561 310.971 278.399H310.967Z" fill="#005D56"/>
<path d="M303.466 252.002V252.522C303.677 252.684 304.25 252.869 305.181 253.081C306.057 253.266 306.63 253.44 306.896 253.601V260.003H310.967V253.601C311.233 253.443 311.805 253.27 312.682 253.081C313.613 252.869 314.185 252.68 314.397 252.522V252.002H303.462H303.466Z" fill="#005D56"/>
<path d="M268.093 244H272.157V239.579H275.936V244H280.004V238.145V238.011V231.998H275.936V236.28H272.157V231.998H268.093V244Z" fill="#8DDBB0"/>
<path d="M268.101 250.398V243.996H264.029V250.398C263.764 250.556 263.191 250.734 262.314 250.919C261.384 251.131 260.811 251.319 260.599 251.477V251.998H271.534V251.477C271.323 251.319 270.75 251.131 269.819 250.919C268.943 250.734 268.37 250.56 268.104 250.398H268.101ZM260.599 224.521C260.811 224.683 261.384 224.868 262.314 225.08C263.191 225.265 263.764 225.439 264.029 225.6V232.002H268.101V225.6C268.366 225.442 268.939 225.269 269.815 225.08C270.746 224.868 271.319 224.679 271.53 224.521V224.001H260.595V224.521H260.599Z" fill="#005D56"/>
<path d="M284.068 250.398V243.996H279.997V250.398C279.731 250.556 279.158 250.733 278.282 250.918C277.351 251.13 276.778 251.319 276.567 251.477V251.997H287.502V251.477C287.29 251.319 286.718 251.13 285.787 250.918C284.91 250.733 284.338 250.56 284.072 250.398H284.068Z" fill="#005D56"/>
<path d="M276.567 224.001V224.521C276.778 224.683 277.351 224.868 278.282 225.08C279.158 225.265 279.731 225.439 279.997 225.6V232.002H284.068V225.6C284.334 225.442 284.907 225.269 285.783 225.08C286.714 224.868 287.287 224.679 287.498 224.521V224.001H276.563H276.567Z" fill="#005D56"/>
<path d="M-0.907043 300.001H3.15701V295.58H6.93653V300.001H11.0044H11.0083V294.146H11.0044V294.008H11.0083V287.999H11.0044H6.93653V292.277H3.15701V287.999H-0.907043V300.001Z" fill="#8DDBB0"/>
<path d="M-0.899382 306.399V299.997H-4.97112V306.399C-5.23642 306.557 -5.8093 306.735 -6.68594 306.92C-7.6164 307.132 -8.18928 307.32 -8.40075 307.478V307.999H2.53411V307.478C2.32265 307.32 1.74975 307.132 0.819284 306.92C-0.0573502 306.735 -0.630236 306.561 -0.895533 306.399H-0.899382ZM-8.40075 280.518C-8.18928 280.68 -7.6164 280.865 -6.68594 281.077C-5.8093 281.262 -5.23642 281.436 -4.97112 281.598V287.999H-0.899382V281.598C-0.634084 281.44 -0.0611868 281.266 0.815448 281.077C1.74591 280.865 2.3188 280.676 2.53026 280.518V279.998H-8.4046V280.518H-8.40075Z" fill="#005D56"/>
<path d="M15.0685 306.399V299.997H10.9967V306.399C10.7314 306.557 10.1585 306.734 9.28189 306.919C8.35143 307.131 7.77855 307.32 7.56708 307.478V307.998H18.5019V307.478C18.2905 307.32 17.7176 307.131 16.7871 306.919C15.9105 306.734 15.3376 306.561 15.0723 306.399H15.0685Z" fill="#005D56"/>
<path d="M7.56708 279.998V280.518C7.77855 280.68 8.35144 280.865 9.2819 281.077C10.1585 281.262 10.7314 281.436 10.9967 281.598V287.999H15.0685V281.598C15.3338 281.44 15.9066 281.266 16.7833 281.077C17.7137 280.865 18.2866 280.676 18.4981 280.518V279.998H7.56323H7.56708Z" fill="#005D56"/>
<path d="M52.8945 300.001H56.9585V295.576H60.7342V300.001H64.8021H64.8059V294.146H64.8021V294.008H64.8059V287.999H64.8021H60.7342V292.277H56.9585V287.999H52.8945V300.001Z" fill="#005D56"/>
<path d="M52.9021 306.399V299.997H48.8304V306.399C48.5651 306.557 47.9922 306.735 47.1156 306.92C46.1851 307.132 45.6122 307.32 45.4008 307.478V307.999H56.3356V307.478C56.1242 307.32 55.5513 307.132 54.6208 306.92C53.7442 306.735 53.1713 306.561 52.906 306.399H52.9021ZM45.4008 280.518C45.6122 280.68 46.1851 280.865 47.1156 281.077C47.9922 281.262 48.5651 281.436 48.8304 281.598V287.999H52.9021V281.598C53.1674 281.44 53.7403 281.266 54.617 281.077C55.5474 280.865 56.1203 280.676 56.3318 280.518V279.998H45.3969V280.518H45.4008Z" fill="#005D56"/>
<path d="M68.8661 306.399V299.997H64.7944V306.399C64.5291 306.557 63.9562 306.734 63.0796 306.919C62.1491 307.131 61.5762 307.32 61.3647 307.478V307.998H72.2996V307.478C72.0881 307.32 71.5153 307.131 70.5848 306.919C69.7082 306.734 69.1353 306.561 68.87 306.399H68.8661Z" fill="#005D56"/>
<path d="M61.3647 279.998V280.518C61.5762 280.68 62.1491 280.865 63.0796 281.077C63.9562 281.262 64.5291 281.436 64.7944 281.598V287.999H68.8661V281.598C69.1314 281.44 69.7043 281.266 70.5809 281.077C71.5114 280.865 72.0843 280.676 72.2958 280.518V279.998H61.3609H61.3647Z" fill="#005D56"/>
<path d="M106.692 300.001H110.756V295.58H114.536V300.001H118.604H118.608V294.146H118.604V294.008H118.608V287.999H118.604H114.536V292.277H110.756V287.999H106.692V300.001Z" fill="#8DDBB0"/>
<path d="M106.7 306.399V299.997H102.628V306.399C102.363 306.557 101.79 306.735 100.913 306.92C99.9828 307.132 99.41 307.32 99.1985 307.478V307.999H110.133V307.478C109.922 307.32 109.349 307.132 108.419 306.92C107.542 306.735 106.969 306.561 106.704 306.399H106.7ZM99.1985 280.518C99.41 280.68 99.9828 280.865 100.913 281.077C101.79 281.262 102.363 281.436 102.628 281.598V287.999H106.7V281.598C106.965 281.44 107.538 281.266 108.415 281.077C109.345 280.865 109.918 280.676 110.13 280.518V279.998H99.1946V280.518H99.1985Z" fill="#005D56"/>
<path d="M122.668 306.399V299.997H118.596V306.399C118.331 306.557 117.758 306.734 116.881 306.919C115.951 307.131 115.378 307.32 115.166 307.478V307.998H126.101V307.478C125.89 307.32 125.317 307.131 124.386 306.919C123.51 306.734 122.937 306.561 122.672 306.399H122.668Z" fill="#005D56"/>
<path d="M115.166 279.998V280.518C115.378 280.68 115.951 280.865 116.881 281.077C117.758 281.262 118.331 281.436 118.596 281.598V287.999H122.668V281.598C122.933 281.44 123.506 281.266 124.383 281.077C125.313 280.865 125.886 280.676 126.097 280.518V279.998H115.162H115.166Z" fill="#005D56"/>
<path d="M160.494 300.001H164.558V295.576H168.337V300.001H172.401H172.405V294.146H172.401V294.008H172.405V287.999H172.401H168.337V292.277H164.558V287.999H160.494V300.001Z" fill="#005D56"/>
<path d="M160.501 306.399V299.997H156.43V306.399C156.164 306.557 155.591 306.735 154.715 306.92C153.784 307.132 153.211 307.32 153 307.478V307.999H163.935V307.478C163.723 307.32 163.151 307.132 162.22 306.92C161.343 306.735 160.771 306.561 160.505 306.399H160.501ZM153 280.518C153.211 280.68 153.784 280.865 154.715 281.077C155.591 281.262 156.164 281.436 156.43 281.598V287.999H160.501V281.598C160.767 281.44 161.34 281.266 162.216 281.077C163.147 280.865 163.72 280.676 163.931 280.518V279.998H152.996V280.518H153Z" fill="#005D56"/>
<path d="M176.469 306.399V299.997H172.397V306.399C172.132 306.557 171.559 306.734 170.683 306.919C169.752 307.131 169.179 307.32 168.968 307.478V307.998H179.903V307.478C179.691 307.32 179.118 307.131 178.188 306.919C177.311 306.734 176.738 306.561 176.473 306.399H176.469Z" fill="#005D56"/>
<path d="M168.968 279.998V280.518C169.179 280.68 169.752 280.865 170.683 281.077C171.559 281.262 172.132 281.436 172.397 281.598V287.999H176.469V281.598C176.734 281.44 177.307 281.266 178.184 281.077C179.114 280.865 179.687 280.676 179.899 280.518V279.998H168.964H168.968Z" fill="#005D56"/>
<path d="M214.291 300.001H218.355V295.58H222.135V300.001H226.203H226.207V294.146H226.203V294.008H226.207V287.999H226.203H222.135V292.277H218.355V287.999H214.291V300.001Z" fill="#8DDBB0"/>
<path d="M214.303 306.399V299.997H210.231V306.399C209.966 306.557 209.393 306.735 208.516 306.92C207.586 307.132 207.013 307.32 206.802 307.478V307.999H217.736V307.478C217.525 307.32 216.952 307.132 216.022 306.92C215.145 306.735 214.572 306.561 214.307 306.399H214.303ZM206.798 280.518C207.009 280.68 207.582 280.865 208.513 281.077C209.389 281.262 209.962 281.436 210.227 281.598V287.999H214.299V281.598C214.564 281.44 215.137 281.266 216.014 281.077C216.944 280.865 217.517 280.676 217.729 280.518V279.998H206.794V280.518H206.798Z" fill="#005D56"/>
<path d="M230.267 306.399V299.997H226.195V306.399C225.93 306.557 225.357 306.734 224.48 306.919C223.55 307.131 222.977 307.32 222.766 307.478V307.998H233.7V307.478C233.489 307.32 232.916 307.131 231.986 306.919C231.109 306.734 230.536 306.561 230.271 306.399H230.267Z" fill="#005D56"/>
<path d="M222.766 279.998V280.518C222.977 280.68 223.55 280.865 224.48 281.077C225.357 281.262 225.93 281.436 226.195 281.598V287.999H230.267V281.598C230.532 281.44 231.105 281.266 231.982 281.077C232.912 280.865 233.485 280.676 233.697 280.518V279.998H222.762H222.766Z" fill="#005D56"/>
<path d="M268.093 300.001H272.157V295.576H275.936V300.001H280.004V294.146V294.008V287.999H275.936V292.277H272.157V287.999H268.093V300.001Z" fill="#005D56"/>
<path d="M268.101 306.399V299.997H264.029V306.399C263.764 306.557 263.191 306.735 262.314 306.92C261.384 307.132 260.811 307.32 260.599 307.478V307.999H271.534V307.478C271.323 307.32 270.75 307.132 269.819 306.92C268.943 306.735 268.37 306.561 268.104 306.399H268.101ZM260.599 280.518C260.811 280.68 261.384 280.865 262.314 281.077C263.191 281.262 263.764 281.436 264.029 281.598V287.999H268.101V281.598C268.366 281.44 268.939 281.266 269.815 281.077C270.746 280.865 271.319 280.676 271.53 280.518V279.998H260.595V280.518H260.599Z" fill="#005D56"/>
<path d="M284.068 306.399V299.997H279.997V306.399C279.731 306.557 279.158 306.734 278.282 306.919C277.351 307.131 276.778 307.32 276.567 307.478V307.998H287.502V307.478C287.29 307.32 286.718 307.131 285.787 306.919C284.91 306.734 284.338 306.561 284.072 306.399H284.068Z" fill="#005D56"/>
<path d="M276.567 279.998V280.518C276.778 280.68 277.351 280.865 278.282 281.077C279.158 281.262 279.731 281.436 279.997 281.598V287.999H284.068V281.598C284.334 281.44 284.907 281.266 285.783 281.077C286.714 280.865 287.287 280.676 287.498 280.518V279.998H276.563H276.567Z" fill="#005D56"/>
</g>
<defs>
<clipPath id="clip0_52_2487">
<rect width="538" height="336" fill="white" transform="translate(-116)"/>
</clipPath>
</defs>
</svg>
