<svg width="53" height="55" viewBox="0 0 53 55" fill="none" xmlns="http://www.w3.org/2000/svg">
<g clip-path="url(#clip0_30_2089)">
<path d="M14.7698 39.2864H22.7735V30.6009H30.2138V39.2864H38.2226H38.2289V27.7893H38.2226V27.5184H38.2289V15.7139H38.2226H30.2138V24.1196H22.7735V15.7139H14.7698V39.2864Z" fill="#031915"/>
<path d="M14.7875 51.857V39.285H6.77368V51.857C6.24943 52.1708 5.12279 52.5123 3.39502 52.8778C1.56013 53.2974 0.434752 53.6642 0.0163574 53.978V55H21.5448V53.978C21.1251 53.6642 19.9985 53.2974 18.1661 52.8778C16.4371 52.5123 15.3104 52.1708 14.7875 51.857ZM0.0163574 1.02078C0.434752 1.33584 1.56013 1.70256 3.39502 2.12096C5.12279 2.48768 6.24943 2.82794 6.77368 3.14174V15.7137H14.7875V3.14174C15.3104 2.82794 16.4371 2.48768 18.1661 2.12096C19.9985 1.70256 21.1251 1.33584 21.5448 1.02078V0H0.0163574V1.02078Z" fill="#031915"/>
<path d="M46.2262 51.8572V39.2852H38.2124V51.8572C37.6882 52.171 36.5628 52.5125 34.8337 52.8779C33.0001 53.2976 31.8735 53.6643 31.4551 53.9781V55.0002H52.9835V53.9781C52.5638 53.6643 51.4385 53.2976 49.6048 52.8779C47.8771 52.5125 46.7492 52.171 46.2262 51.8572Z" fill="#031915"/>
<path d="M31.4551 0V1.02078C31.8735 1.33584 33.0001 1.70256 34.8337 2.12096C36.5628 2.48768 37.6882 2.82794 38.2124 3.14174V15.7137H46.2262V3.14174C46.7492 2.82794 47.8771 2.48768 49.6048 2.12096C51.4385 1.70256 52.5638 1.33584 52.9835 1.02078V0H31.4551Z" fill="#031915"/>
</g>
<defs>
<clipPath id="clip0_30_2089">
<rect width="52.9673" height="55" fill="white" transform="translate(0.0163574)"/>
</clipPath>
</defs>
</svg>
