<svg width="39" height="40" viewBox="0 0 39 40" fill="none" xmlns="http://www.w3.org/2000/svg">
<g clip-path="url(#clip0_2042_2491)">
<path d="M10.969 28.5718H16.7899V22.2551H22.201V28.5718H28.0256H28.0301V20.2103H28.0256V20.0133H28.0301V11.4282H28.0256H22.201V17.5414H16.7899V11.4282H10.969V28.5718Z" fill="#072D2B"/>
<path d="M10.9818 37.7142V28.5709H5.15362V37.7142C4.77234 37.9424 3.95297 38.1908 2.69641 38.4566C1.36194 38.7618 0.543484 39.0285 0.239197 39.2567V40H15.8962V39.2567C15.591 39.0285 14.7717 38.7618 13.439 38.4566C12.1815 38.1908 11.3622 37.9424 10.9818 37.7142ZM0.239197 0.742387C0.543484 0.971519 1.36194 1.23823 2.69641 1.54252C3.95297 1.80922 4.77234 2.05669 5.15362 2.2849V11.4282H10.9818V2.2849C11.3622 2.05669 12.1815 1.80922 13.439 1.54252C14.7717 1.23823 15.591 0.971519 15.8962 0.742387V0H0.239197V0.742387Z" fill="#072D2B"/>
<path d="M33.8464 37.7142V28.5709H28.0182V37.7142C27.637 37.9424 26.8185 38.1908 25.561 38.4566C24.2275 38.7618 23.4081 39.0285 23.1038 39.2567V40H38.7609V39.2567C38.4557 39.0285 37.6372 38.7618 36.3036 38.4566C35.0471 38.1908 34.2268 37.9424 33.8464 37.7142Z" fill="#072D2B"/>
<path d="M23.1038 0V0.742387C23.4081 0.971519 24.2275 1.23823 25.561 1.54252C26.8185 1.80922 27.637 2.05669 28.0182 2.2849V11.4282H33.8464V2.2849C34.2268 2.05669 35.0471 1.80922 36.3036 1.54252C37.6372 1.23823 38.4557 0.971519 38.7609 0.742387V0H23.1038Z" fill="#072D2B"/>
</g>
<defs>
<clipPath id="clip0_2042_2491">
<rect width="38.5216" height="40" fill="white" transform="translate(0.239197)"/>
</clipPath>
</defs>
</svg>
